<svg width="17" height="17" viewBox="0 0 17 17" fill="none" xmlns="http://www.w3.org/2000/svg">
<style>
		path {
			fill: #ffffff;
		}
		@media ( prefers-color-scheme: light ) {
			path {
				fill: #000000;
			}
		}
</style>
<path d="M3.42428 11.5743C3.40413 11.4869 3.38345 11.3999 3.36411 11.3122C3.27049 10.909 3.19785 10.5011 3.14651 10.0901C3.07102 9.42283 3.10728 8.76754 3.35121 8.13488C3.51712 7.7149 3.74982 7.32543 4.04001 6.98214C4.32262 6.64112 4.62834 6.32304 4.98294 6.05846C5.21909 5.88235 5.47349 5.73765 5.76203 5.67621C5.86376 5.65303 5.96859 5.64703 6.07231 5.65846C6.338 5.69396 6.46936 5.91812 6.38877 6.18051C6.32964 6.37164 6.19722 6.50813 6.04249 6.62117C5.96068 6.67838 5.87497 6.72947 5.78592 6.7741C5.48397 6.93327 5.18523 7.09708 4.91847 7.31445C4.44566 7.69969 4.11577 8.18978 3.88796 8.75523C3.70313 9.21341 3.5946 9.69174 3.52636 10.1805C3.46675 10.6281 3.43856 11.0795 3.44201 11.5312C3.44201 11.5448 3.43959 11.5585 3.43825 11.5719L3.42428 11.5743Z" fill="black"/>
<path d="M8.50517 14.8698C8.40419 14.8548 8.30291 14.84 8.20189 14.8247C7.77984 14.7606 7.35941 14.6866 6.9476 14.5697C6.40357 14.4154 5.89637 14.1853 5.45662 13.8161C5.05366 13.4781 4.74472 13.0639 4.49837 12.5998C4.28131 12.1902 4.09192 11.7692 3.98553 11.3146C3.91864 11.0282 3.88748 10.7377 3.94954 10.446C3.96822 10.3598 3.99955 10.277 4.04248 10.2003C4.14994 10.0119 4.35384 9.95677 4.54458 10.0556C4.64054 10.1077 4.7202 10.1861 4.77454 10.282C4.86822 10.4404 4.92552 10.6183 4.94217 10.8024C4.97951 11.1543 5.01578 11.5065 5.11491 11.8481C5.29571 12.4717 5.64036 12.9888 6.10379 13.4292C6.56718 13.8696 7.09776 14.2044 7.66699 14.4815C7.92569 14.6076 8.19276 14.7164 8.45602 14.8326C8.47322 14.8403 8.49041 14.8469 8.50785 14.8539L8.50517 14.8698Z" fill="black"/>
<path d="M4.76758 5.21349C4.77543 5.2072 4.78369 5.20145 4.79229 5.19629C5.27343 4.93581 5.75699 4.6808 6.27119 4.49213C6.64324 4.35561 7.02335 4.25896 7.42015 4.23438C7.8948 4.20448 8.37051 4.27275 8.81842 4.43506C9.41803 4.65022 9.97174 4.95192 10.4649 5.36148C10.6876 5.54632 10.8776 5.76366 11.0022 6.03123C11.0584 6.1508 11.0992 6.27698 11.078 6.41074C11.0487 6.59588 10.902 6.72176 10.7145 6.73186C10.6043 6.73598 10.4949 6.71196 10.3962 6.66197C10.2722 6.60444 10.1597 6.52398 10.0647 6.42465C9.89354 6.24286 9.72836 6.05498 9.55156 5.8786C9.03954 5.36885 8.42005 5.07451 7.71673 4.9582C7.28555 4.8912 6.84788 4.878 6.41355 4.91888C5.86821 4.96448 5.33495 5.07452 4.80653 5.21404C4.79498 5.21704 4.78316 5.21895 4.77134 5.22168L4.76758 5.21349Z" fill="black"/>
<path d="M13.4264 10.445C13.4244 10.4566 13.4218 10.4681 13.4184 10.4794C13.2325 11.0039 13.0401 11.5257 12.7804 12.0185C12.4958 12.5583 12.1319 13.0287 11.6357 13.3864C11.2094 13.6941 10.7352 13.8924 10.2331 14.0272C9.90079 14.1163 9.56526 14.1911 9.22166 14.2126C8.89927 14.2339 8.5793 14.2181 8.27603 14.0903C8.18753 14.0534 8.10522 14.0028 8.03208 13.9401C7.85828 13.7889 7.85022 13.5628 8.00201 13.3886C8.10948 13.2641 8.25452 13.2103 8.40875 13.1773C8.56292 13.1442 8.7241 13.1533 8.88233 13.1702C9.19991 13.2027 9.51769 13.23 9.83735 13.2027C10.4464 13.1513 10.9925 12.9296 11.4952 12.5826C11.9978 12.2356 12.4161 11.808 12.7862 11.3266C12.9974 11.052 13.1892 10.7617 13.3894 10.4786C13.3982 10.4663 13.4068 10.4534 13.4162 10.4409L13.4264 10.445Z" fill="black"/>
<path d="M10.9682 4.81885C11.4934 5.28301 12.0173 5.74717 12.4326 6.32326C12.7875 6.81474 13.0169 7.35915 13.1021 7.96393C13.1467 8.29417 13.1552 8.62839 13.1273 8.96054C13.1013 9.34945 13.0374 9.73475 12.9366 10.1108C12.8517 10.4161 12.7289 10.7055 12.5282 10.9523C12.4655 11.0306 12.3926 11.0998 12.3115 11.1579C12.046 11.3436 11.7508 11.2205 11.6823 10.9007C11.6382 10.6957 11.6734 10.4975 11.7543 10.3093C11.841 10.1067 11.9423 9.91072 12.0331 9.70866C12.2562 9.22389 12.3615 8.69174 12.3399 8.15696C12.317 7.7161 12.2274 7.28142 12.0742 6.86824C11.8287 6.18404 11.4677 5.56396 11.0555 4.9723C11.022 4.92397 10.9887 4.87564 10.9551 4.82758L10.9682 4.81885Z" fill="black"/>
<path d="M4.33784 3.48254C4.33247 3.63244 4.32844 3.78288 4.32172 3.9325C4.30122 4.44058 4.24955 4.94686 4.16698 5.4484C4.09767 5.8555 4.01117 6.25794 3.83172 6.63283C3.56307 7.19338 3.12438 7.51667 2.51537 7.58847C1.97137 7.65316 1.48056 7.49754 1.03971 7.17451C0.831246 7.02163 0.650717 6.84035 0.534663 6.60278C0.509717 6.54273 0.488365 6.48118 0.470726 6.41851C0.464085 6.40433 0.458168 6.38985 0.452997 6.37511C0.444824 6.35449 0.441779 6.33217 0.444131 6.31011C0.499471 6.12908 0.628152 6.03706 0.807067 6.0073C1.02198 5.97072 1.18639 6.05891 1.32474 6.21702C1.40227 6.31243 1.48477 6.40356 1.5719 6.49005C1.73652 6.64834 1.94532 6.75097 2.16963 6.7838C2.45089 6.82287 2.69509 6.72922 2.91618 6.5602C3.1542 6.37835 3.33124 6.14217 3.4849 5.88662C3.85804 5.26519 4.10278 4.5927 4.24945 3.88199C4.27632 3.7493 4.29808 3.61496 4.32199 3.48145L4.33784 3.48254Z" fill="black"/>
<path d="M8.33203 16.7519C8.33786 16.7386 8.34446 16.7257 8.35161 16.7131C8.79354 16.0521 9.27067 15.4194 9.83483 14.8603C10.0742 14.623 10.3318 14.4092 10.6383 14.2656C11.2025 14.0013 11.7459 14.0728 12.2536 14.4095C12.7979 14.7702 13.1047 15.2944 13.1939 15.9472C13.2164 16.088 13.2064 16.2321 13.1649 16.3683C13.0956 16.5801 12.9538 16.6546 12.73 16.5957C12.4842 16.5307 12.3394 16.3338 12.3192 16.045C12.2999 15.7719 12.2198 15.5199 12.0519 15.3028C11.8263 15.0107 11.5208 14.9102 11.167 14.9365C10.8342 14.961 10.5306 15.0839 10.2373 15.2368C9.52105 15.6051 8.90613 16.1081 8.37367 16.7169C8.36454 16.7273 8.35541 16.7379 8.34679 16.7483C8.3441 16.75 8.34035 16.7497 8.33203 16.7519Z" fill="black"/>
<path d="M14.9222 11.906C14.9182 11.9016 14.9139 11.8975 14.9104 11.8929C14.4693 11.2477 14.0641 10.5823 13.7531 9.85952C13.6306 9.57505 13.5306 9.28341 13.4887 8.97352C13.4081 8.37287 13.5989 7.87485 14.0381 7.47182C14.3575 7.17915 14.7366 7.02049 15.1618 6.96534C15.467 6.92606 15.7671 6.94431 16.0588 7.05028C16.1696 7.08879 16.2711 7.15064 16.3567 7.23182C16.4564 7.32821 16.4642 7.49749 16.407 7.60918C16.2726 7.86665 16.0255 7.96876 15.7314 7.88222C15.4947 7.8115 15.2561 7.78608 15.0144 7.84289C14.6337 7.93216 14.4019 8.18308 14.2866 8.55281C14.2022 8.82363 14.1883 9.10269 14.2076 9.38361C14.2673 10.2508 14.5144 11.0642 14.9015 11.8357C14.9123 11.8571 14.9214 11.8792 14.9313 11.9007L14.9222 11.906Z" fill="black"/>
<path d="M1.40294 11.0791C1.48755 11.1154 1.57245 11.1506 1.65653 11.1883C2.29375 11.4682 2.91486 11.7791 3.49325 12.1712C3.72696 12.3301 3.94779 12.5054 4.13799 12.7189C4.56996 13.2071 4.69005 13.7707 4.48991 14.3883C4.25968 15.0998 3.77586 15.5642 3.07013 15.7841C2.94455 15.8242 2.81083 15.8302 2.68221 15.8018C2.54789 15.7715 2.46729 15.6822 2.45064 15.5484C2.41464 15.2535 2.54789 15.034 2.82191 14.9291C2.95623 14.8775 3.09538 14.8311 3.22084 14.7609C3.48062 14.6157 3.67082 14.406 3.74469 14.1035C3.80621 13.8545 3.76028 13.615 3.67055 13.3816C3.56659 13.1113 3.40808 12.8746 3.2297 12.651C2.73218 12.0268 2.13337 11.5241 1.45022 11.1219C1.43221 11.1116 1.41502 11.1004 1.39648 11.0897L1.40294 11.0791Z" fill="black"/>
<path d="M12.6887 4.02025C12.5544 4.05166 12.4222 4.08469 12.2884 4.11445C11.7663 4.23469 11.2367 4.31888 10.7034 4.36646C10.3187 4.39759 9.93376 4.41179 9.55233 4.33015C8.84632 4.17889 8.3622 3.68169 8.22734 2.95951C8.11724 2.37057 8.22466 1.82231 8.54974 1.3213C8.62292 1.2041 8.71837 1.10293 8.83045 1.02369C8.90165 0.974267 8.97955 0.930581 9.06689 0.939045C9.12688 0.943456 9.18449 0.964621 9.23344 1.00021C9.33101 1.07839 9.39831 1.18909 9.42341 1.31277C9.44852 1.43646 9.42986 1.56518 9.37072 1.67624C9.33958 1.73345 9.30428 1.7882 9.26513 1.84006C9.09777 2.07542 8.98975 2.33153 8.99167 2.62777C8.9938 2.96115 9.15097 3.21535 9.40186 3.41603C9.6528 3.61671 9.93752 3.72811 10.2373 3.81684C10.5996 3.92068 10.9707 3.98943 11.3458 4.02217C11.7072 4.05434 12.0706 4.05662 12.4324 4.02899C12.5171 4.02271 12.6011 4.01179 12.6855 4.00305L12.6887 4.02025Z" fill="black"/>
<path d="M5.94533 12.4618C5.94533 12.1245 6.1914 11.8679 6.51349 11.8682C6.65991 11.8687 6.80013 11.9282 6.90339 12.0336C7.0067 12.1391 7.06461 12.2819 7.06451 12.4306C7.06451 12.7621 6.81438 13.0256 6.50036 13.0256C6.42733 13.0261 6.35495 13.0119 6.28735 12.9838C6.2198 12.9557 6.15843 12.9141 6.1068 12.8617C6.05512 12.8092 6.0143 12.7468 5.98656 12.6782C5.95882 12.6095 5.94482 12.536 5.94533 12.4618Z" fill="black"/>
<path d="M10.1211 11.9356C10.1207 11.8614 10.1348 11.788 10.1624 11.7194C10.1901 11.6509 10.2308 11.5885 10.2822 11.536C10.3336 11.4835 10.3948 11.4418 10.4621 11.4133C10.5294 11.3848 10.6016 11.3701 10.6745 11.3701C10.827 11.3703 10.9733 11.4312 11.0821 11.5399C11.1908 11.6485 11.2533 11.7962 11.2561 11.9511C11.2566 12.0253 11.2426 12.0988 11.215 12.1674C11.1873 12.236 11.1466 12.2984 11.0951 12.351C11.0437 12.4035 10.9824 12.4451 10.915 12.4735C10.8476 12.5019 10.7754 12.5165 10.7025 12.5163C10.3836 12.5155 10.1208 12.2531 10.1211 11.9356Z" fill="black"/>
<path d="M11.3531 8.53054C11.2802 8.53152 11.2077 8.51781 11.14 8.49023C11.0723 8.4626 11.0107 8.42167 10.9586 8.36977C10.9065 8.31781 10.8651 8.25596 10.8367 8.18766C10.8083 8.11937 10.7934 8.04607 10.793 7.97195C10.7901 7.65845 11.0616 7.38161 11.374 7.38135C11.5214 7.383 11.6622 7.4433 11.7662 7.54938C11.8701 7.65541 11.929 7.79871 11.9301 7.94844C11.9301 8.2589 11.6634 8.52837 11.3531 8.53054Z" fill="black"/>
<path d="M4.93328 8.2388C5.25324 8.24179 5.49932 8.49245 5.49556 8.81218C5.49179 9.13191 5.23873 9.3719 4.91582 9.36943C4.60017 9.36696 4.34979 9.1166 4.35356 8.80646C4.35732 8.47879 4.60635 8.23581 4.93328 8.2388Z" fill="black"/>
<path d="M7.22852 5.94944C7.22959 5.79968 7.28893 5.65644 7.39355 5.551C7.49823 5.44556 7.63967 5.3865 7.787 5.38672C8.10184 5.38945 8.3544 5.66112 8.34928 5.99177C8.3467 6.14024 8.28695 6.28173 8.18289 6.38595C8.07887 6.49017 7.93874 6.54883 7.79268 6.54929C7.4786 6.54574 7.2269 6.27709 7.22852 5.94944Z" fill="black"/>
</svg>
