<svg width="11360" height="5736" viewBox="0 0 11360 5736" fill="none" xmlns="http://www.w3.org/2000/svg">
<path d="M4776.86 1882.92C4773.24 1867.45 4769.52 1852.03 4766.04 1836.52C4749.19 1765.14 4736.13 1692.92 4726.89 1620.16C4713.3 1502.03 4719.83 1386.03 4763.72 1274.03C4793.57 1199.68 4835.44 1130.73 4887.65 1069.96C4938.5 1009.59 4993.51 953.274 5057.31 906.436C5099.8 875.26 5145.57 849.642 5197.48 838.766C5215.79 834.662 5234.66 833.6 5253.31 835.624C5301.12 841.908 5324.75 881.592 5310.25 928.042C5299.62 961.877 5275.79 986.045 5247.95 1006.06C5233.23 1016.18 5217.81 1025.23 5201.79 1033.12C5147.46 1061.3 5093.71 1090.31 5045.71 1128.78C4960.64 1196.98 4901.28 1283.75 4860.29 1383.85C4827.04 1464.96 4807.51 1549.64 4795.23 1636.16C4784.51 1715.41 4779.43 1795.32 4780.06 1875.28C4780.06 1877.7 4779.62 1880.11 4779.38 1882.48L4776.86 1882.92Z" fill="white"/>
<path d="M5691.09 2466.38C5672.92 2463.72 5654.69 2461.11 5636.52 2458.41C5560.58 2447.05 5484.94 2433.95 5410.84 2413.26C5312.96 2385.95 5221.7 2345.2 5142.58 2279.85C5070.07 2220.01 5014.48 2146.69 4970.16 2064.52C4931.11 1992.01 4897.03 1917.48 4877.89 1837C4865.85 1786.29 4860.25 1734.87 4871.41 1683.24C4874.77 1667.99 4880.41 1653.32 4888.13 1639.74C4907.47 1606.39 4944.16 1596.62 4978.47 1614.12C4995.74 1623.35 5010.07 1637.23 5019.85 1654.19C5036.71 1682.24 5047.02 1713.73 5050.01 1746.32C5056.73 1808.63 5063.26 1870.98 5081.09 1931.45C5113.62 2041.85 5175.64 2133.39 5259.02 2211.36C5342.4 2289.33 5437.86 2348.59 5540.28 2397.65C5586.83 2419.98 5634.88 2439.22 5682.25 2459.81C5685.34 2461.16 5688.43 2462.32 5691.57 2463.58L5691.09 2466.38Z" fill="white"/>
<path d="M5018.74 756.881C5020.15 755.767 5021.63 754.75 5023.18 753.836C5109.75 707.723 5196.76 662.578 5289.27 629.178C5356.22 605.01 5424.61 587.899 5496 583.548C5581.41 578.256 5667 590.342 5747.59 619.075C5855.48 657.164 5955.1 710.575 6043.84 783.079C6083.91 815.802 6118.09 854.278 6140.52 901.647C6150.62 922.818 6157.96 945.149 6154.15 968.834C6148.88 1001.61 6122.49 1023.89 6088.75 1025.68C6068.92 1026.41 6049.23 1022.16 6031.47 1013.3C6009.15 1003.12 5988.93 988.879 5971.82 971.299C5941.03 939.107 5911.31 905.852 5879.5 874.627C5787.37 784.384 5675.91 732.278 5549.37 711.687C5471.78 699.827 5393.04 697.489 5314.89 704.726C5216.77 712.799 5120.82 732.278 5025.74 756.978C5023.67 757.509 5021.54 757.848 5019.41 758.331L5018.74 756.881Z" fill="white"/>
<path d="M6576.55 1683C6576.2 1685.06 6575.71 1687.09 6575.1 1689.09C6541.66 1781.95 6507.05 1874.32 6460.31 1961.56C6409.12 2057.12 6343.62 2140.41 6254.35 2203.73C6177.64 2258.2 6092.33 2293.29 6001.99 2317.17C5942.19 2332.93 5881.82 2346.17 5820 2349.99C5762 2353.76 5704.43 2350.96 5649.86 2328.34C5633.94 2321.81 5619.13 2312.84 5605.97 2301.75C5574.7 2274.97 5573.25 2234.95 5600.56 2204.11C5619.89 2182.07 5645.99 2172.55 5673.74 2166.7C5701.48 2160.85 5730.48 2162.45 5758.95 2165.44C5816.09 2171.2 5873.27 2176.03 5930.79 2171.2C6040.36 2162.11 6138.63 2122.86 6229.07 2061.42C6319.5 1999.99 6394.76 1924.3 6461.37 1839.08C6499.36 1790.45 6533.87 1739.07 6569.88 1688.95C6571.48 1686.77 6573.03 1684.5 6574.72 1682.28L6576.55 1683Z" fill="white"/>
<path d="M6134.14 686.992C6228.63 769.163 6322.89 851.334 6397.62 953.323C6461.47 1040.33 6502.75 1136.71 6518.07 1243.77C6526.11 1302.23 6527.63 1361.4 6522.61 1420.2C6517.93 1489.05 6506.43 1557.26 6488.29 1623.84C6473.02 1677.88 6450.93 1729.11 6414.82 1772.81C6403.54 1786.66 6390.42 1798.91 6375.82 1809.21C6328.06 1842.07 6274.94 1820.28 6262.61 1763.67C6254.69 1727.37 6261.02 1692.28 6275.57 1658.98C6291.18 1623.11 6309.4 1588.41 6325.74 1552.64C6365.88 1466.82 6384.81 1372.61 6380.94 1277.95C6376.81 1199.89 6360.69 1122.94 6333.14 1049.8C6288.96 928.671 6223.99 818.901 6149.85 714.157C6143.8 705.601 6137.81 697.046 6131.77 688.539L6134.14 686.992Z" fill="white"/>
<path d="M4941.3 450.434C4940.33 476.971 4939.61 503.604 4938.4 530.092C4934.71 620.038 4925.41 709.665 4910.56 798.453C4898.09 870.522 4882.52 941.769 4850.23 1008.13C4801.9 1107.37 4722.97 1164.6 4613.39 1177.31C4515.51 1188.77 4427.2 1161.21 4347.88 1104.03C4310.37 1076.96 4277.89 1044.87 4257.01 1002.82C4252.52 992.183 4248.68 981.288 4245.5 970.19C4244.31 967.685 4243.24 965.12 4242.31 962.505C4240.84 958.86 4240.3 954.908 4240.72 951.001C4250.68 918.954 4273.83 902.665 4306.02 897.396C4344.69 890.919 4374.27 906.532 4399.16 934.518C4413.11 951.413 4427.96 967.548 4443.63 982.854C4473.25 1010.88 4510.82 1029.04 4551.18 1034.86C4601.79 1041.78 4645.73 1025.2 4685.51 995.277C4728.33 963.085 4760.19 921.274 4787.83 876.032C4854.97 766.019 4899.01 646.968 4925.4 521.15C4930.23 497.659 4934.15 473.877 4938.45 450.241L4941.3 450.434Z" fill="white"/>
<path d="M5660.06 2799.56C5661.12 2797.21 5662.3 2794.92 5663.59 2792.69C5743.1 2675.67 5828.95 2563.68 5930.45 2464.69C5973.52 2422.68 6019.87 2384.84 6075.03 2359.41C6176.53 2312.62 6274.31 2325.29 6365.67 2384.88C6463.6 2448.74 6518.8 2541.54 6534.84 2657.11C6538.89 2682.03 6537.1 2707.54 6529.62 2731.65C6517.15 2769.16 6491.63 2782.35 6451.37 2771.91C6407.14 2760.41 6381.09 2725.56 6377.46 2674.42C6373.98 2626.08 6359.58 2581.47 6329.37 2543.04C6288.77 2491.32 6233.81 2473.53 6170.15 2478.17C6110.26 2482.52 6055.64 2504.27 6002.86 2531.34C5874 2596.55 5763.36 2685.58 5667.55 2793.37C5665.91 2795.21 5664.27 2797.09 5662.72 2798.93C5662.24 2799.22 5661.56 2799.17 5660.06 2799.56Z" fill="white"/>
<path d="M6845.83 1941.65C6845.11 1940.88 6844.33 1940.15 6843.71 1939.33C6764.34 1825.11 6691.45 1707.32 6635.48 1579.37C6613.43 1529 6595.45 1477.38 6587.91 1422.52C6573.41 1316.18 6607.73 1228.02 6686.76 1156.67C6744.23 1104.86 6812.43 1076.77 6888.95 1067.01C6943.86 1060.05 6997.85 1063.29 7050.34 1082.04C7070.28 1088.86 7088.54 1099.82 7103.95 1114.19C7121.88 1131.25 7123.28 1161.22 7112.99 1180.99C7088.82 1226.57 7044.35 1244.64 6991.42 1229.32C6948.84 1216.8 6905.91 1212.31 6862.41 1222.36C6793.92 1238.17 6752.21 1282.59 6731.47 1348.04C6716.29 1395.98 6713.78 1445.38 6717.26 1495.12C6727.99 1648.64 6772.46 1792.63 6842.11 1929.23C6844.04 1933 6845.69 1936.91 6847.48 1940.73L6845.83 1941.65Z" fill="white"/>
<path d="M4413.19 1795.28C4428.41 1801.71 4443.69 1807.95 4458.82 1814.62C4573.47 1864.16 4685.22 1919.22 4789.29 1988.63C4831.34 2016.76 4871.07 2047.79 4905.3 2085.59C4983.02 2172.01 5004.63 2271.78 4968.62 2381.11C4927.19 2507.08 4840.14 2589.3 4713.16 2628.21C4690.56 2635.31 4666.51 2636.39 4643.36 2631.35C4619.19 2625.98 4604.69 2610.18 4601.7 2586.49C4595.22 2534.29 4619.2 2495.43 4668.5 2476.87C4692.67 2467.73 4717.7 2459.51 4740.28 2447.09C4787.02 2421.38 4821.24 2384.26 4834.53 2330.7C4845.6 2286.62 4837.33 2244.23 4821.19 2202.9C4802.48 2155.05 4773.97 2113.14 4741.87 2073.55C4652.35 1963.06 4544.61 1874.07 4421.69 1802.87C4418.46 1801.04 4415.36 1799.05 4412.03 1797.17L4413.19 1795.28Z" fill="white"/>
<path d="M6444.02 545.658C6419.85 551.216 6396.07 557.065 6372 562.334C6278.05 583.619 6182.78 598.525 6086.82 606.948C6017.6 612.458 5948.33 614.971 5879.7 600.519C5752.67 573.741 5665.57 485.721 5641.31 357.873C5621.49 253.612 5640.82 156.554 5699.31 67.8572C5712.47 47.1108 5729.65 29.1994 5749.82 15.1713C5762.63 6.42247 5776.65 -1.31145 5792.35 0.18696C5803.15 0.967783 5813.52 4.71481 5822.32 11.0144C5839.88 24.8561 5851.99 44.4527 5856.5 66.3485C5861.02 88.2442 5857.67 111.032 5847.02 130.694C5841.42 140.821 5835.07 150.515 5828.03 159.695C5797.91 201.361 5778.48 246.7 5778.82 299.145C5779.21 358.163 5807.48 403.163 5852.63 438.69C5897.78 474.217 5949.01 493.938 6002.95 509.647C6068.14 528.03 6134.91 540.2 6202.39 545.996C6267.42 551.691 6332.81 552.095 6397.91 547.204C6413.13 546.093 6428.26 544.159 6443.44 542.613L6444.02 545.658Z" fill="white"/>
<path d="M5230.4 2040.06C5230.4 1980.36 5274.68 1934.93 5332.63 1934.97C5358.97 1935.06 5384.2 1945.6 5402.79 1964.26C5421.37 1982.93 5431.79 2008.21 5431.77 2034.55C5431.77 2093.23 5386.77 2139.87 5330.26 2139.87C5317.13 2139.97 5304.1 2137.45 5291.95 2132.47C5279.79 2127.49 5268.74 2120.14 5259.45 2110.85C5250.16 2101.57 5242.81 2090.52 5237.82 2078.37C5232.83 2066.22 5230.31 2053.19 5230.4 2040.06Z" fill="white"/>
<path d="M5982.02 1946.87C5981.96 1933.75 5984.49 1920.75 5989.46 1908.61C5994.44 1896.47 6001.76 1885.43 6011.01 1876.13C6020.26 1866.83 6031.26 1859.45 6043.37 1854.41C6055.49 1849.37 6068.47 1846.77 6081.59 1846.77C6109.03 1846.8 6135.36 1857.59 6154.92 1876.82C6174.49 1896.06 6185.73 1922.2 6186.24 1949.63C6186.32 1962.75 6183.81 1975.76 6178.83 1987.91C6173.86 2000.06 6166.54 2011.1 6157.27 2020.41C6148.01 2029.71 6137 2037.08 6124.87 2042.11C6112.75 2047.13 6099.75 2049.71 6086.62 2049.68C6029.25 2049.54 5981.97 2003.09 5982.02 1946.87Z" fill="white"/>
<path d="M6203.64 1344.17C6190.52 1344.34 6177.49 1341.91 6165.31 1337.03C6153.13 1332.14 6142.03 1324.89 6132.66 1315.7C6123.3 1306.51 6115.84 1295.55 6110.73 1283.46C6105.61 1271.38 6102.94 1258.39 6102.86 1245.27C6102.33 1189.78 6151.2 1140.77 6207.41 1140.72C6233.92 1141.01 6259.25 1151.69 6277.96 1170.47C6296.67 1189.24 6307.27 1214.61 6307.47 1241.11C6307.47 1296.07 6259.47 1343.78 6203.64 1344.17Z" fill="white"/>
<path d="M5048.42 1292.5C5105.98 1293.03 5150.26 1337.4 5149.58 1394C5148.91 1450.6 5103.37 1493.09 5045.27 1492.65C4988.48 1492.22 4943.43 1447.9 4944.11 1392.99C4944.78 1334.98 4989.59 1291.96 5048.42 1292.5Z" fill="white"/>
<path d="M5461.59 887.15C5461.78 860.637 5472.46 835.278 5491.29 816.612C5510.12 797.946 5535.57 787.49 5562.08 787.529C5618.73 788.013 5664.17 836.107 5663.25 894.642C5662.78 920.924 5652.03 945.976 5633.31 964.428C5614.59 982.879 5589.38 993.259 5563.1 993.344C5506.59 992.715 5461.3 945.153 5461.59 887.15Z" fill="white"/>
<path d="M8203.9 4852.97C8317.6 4852.97 8428.03 4877.02 8535.17 4925.13C8569.06 4940.43 8588.74 4951.91 8594.21 4959.56C8597.49 4963.94 8599.13 4968.31 8599.13 4972.68V4974.32L8353.13 5094.04C8352.04 5094.04 8350.4 5094.04 8348.22 5094.04C8346.03 5095.13 8344.39 5095.68 8343.3 5095.68C8332.36 5095.68 8308.31 5086.93 8271.14 5069.44C8266.76 5068.35 8263.49 5067.25 8261.3 5066.16C8155.25 5026.8 8055.21 5007.12 7961.19 5007.12C7927.3 5007.12 7897.23 5009.31 7870.99 5013.68C7833.82 5032.27 7807.04 5045.93 7790.64 5054.68L7770.96 5061.24H7738.16C7737.07 5061.24 7734.33 5061.24 7729.96 5061.24C7721.21 5062.33 7714.65 5062.88 7710.28 5062.88C7689.51 5061.79 7678.57 5055.23 7677.48 5043.2C7679.67 5032.27 7687.32 5021.34 7700.44 5010.4V5008.76C7700.44 4982.52 7714.65 4953.55 7743.08 4921.85C7775.88 4887.95 7841.47 4835.48 7939.87 4764.41C7991.26 4727.24 8031.16 4696.08 8059.59 4670.94C8149.24 4586.75 8198.98 4512.96 8208.82 4449.54C8211.01 4438.61 8212.1 4428.23 8212.1 4418.39C8212.1 4362.63 8193.51 4315.07 8156.34 4275.71C8141.04 4260.41 8125.18 4249.47 8108.78 4242.91C8071.61 4281.18 8028.43 4339.12 7979.23 4416.75C7977.04 4418.93 7974.31 4422.76 7971.03 4428.23C7963.38 4441.35 7957.36 4449.54 7952.99 4452.82L7797.2 4502.02C7791.73 4497.65 7789 4491.09 7789 4482.34C7789 4444.08 7824.53 4378.48 7895.59 4285.55C7898.87 4282.27 7901.06 4279.54 7902.15 4277.35C7937.14 4236.9 7967.2 4211.21 7992.35 4200.27C8048.11 4177.32 8119.17 4144.52 8205.54 4101.88C8224.13 4092.04 8253.1 4087.12 8292.46 4087.12C8297.92 4087.12 8303.94 4087.12 8310.5 4087.12H8315.42C8391.95 4087.12 8449.89 4121.01 8489.25 4188.79C8510.02 4225.97 8520.41 4266.97 8520.41 4311.79C8520.41 4389.41 8485.97 4464.85 8417.09 4538.1C8410.53 4544.66 8391.4 4563.79 8359.69 4595.5C8323.62 4629.39 8265.67 4676.95 8185.86 4738.17C8162.9 4755.67 8145.96 4768.79 8135.02 4777.53C8086.92 4813.61 8054.12 4845.86 8036.63 4874.29C8094.57 4860.08 8150.33 4852.97 8203.9 4852.97ZM8207.18 4169.12C8227.95 4160.37 8245.99 4152.72 8261.3 4146.16C8240.53 4153.81 8222.49 4161.46 8207.18 4169.12ZM9205.9 4998.92C9282.43 4899.43 9320.7 4805.96 9320.7 4718.49C9320.7 4554.5 9238.7 4423.85 9074.71 4326.55C9067.05 4321.08 9059.95 4316.71 9053.39 4313.43C8971.39 4403.08 8930.39 4510.22 8930.39 4634.86V4644.7C8930.39 4760.59 8967.02 4852.97 9040.27 4921.85C9087.28 4965.58 9141.94 4991.27 9204.26 4998.92H9205.9ZM9266.58 4136.32C9267.67 4136.32 9269.86 4136.32 9273.14 4136.32C9276.42 4135.22 9278.61 4134.68 9279.7 4134.68C9335.46 4134.68 9399.96 4180.05 9473.21 4270.79C9475.4 4272.98 9478.13 4276.8 9481.41 4282.27C9486.88 4288.83 9490.7 4293.2 9492.89 4295.39C9567.23 4399.25 9605.5 4514.6 9607.69 4641.42C9606.59 4779.17 9559.58 4884.67 9466.65 4957.93C9382.47 5023.52 9288.45 5067.8 9184.58 5090.76H9176.38C9158.89 5097.32 9133.74 5107.16 9100.95 5120.28C9067.05 5133.4 9041.91 5143.24 9025.51 5149.8C9000.36 5159.64 8976.31 5164.56 8953.35 5164.56C8872.45 5164.56 8797.01 5119.19 8727.04 5028.44C8719.39 5017.51 8712.28 5007.12 8705.72 4997.28C8658.71 4922.94 8635.2 4839.85 8635.2 4748.01V4733.25C8635.2 4576.91 8686.59 4446.26 8789.36 4341.31C8807.94 4322.72 8826.53 4306.32 8845.12 4292.11C8896.5 4253.85 8990.52 4210.11 9127.18 4160.92C9168.73 4145.61 9198.8 4134.13 9217.38 4126.48C9226.13 4124.29 9237.06 4122.1 9250.18 4119.92C9262.21 4122.1 9268.22 4125.38 9268.22 4129.76C9268.22 4131.94 9267.67 4134.13 9266.58 4136.32ZM10130.8 4852.97C10244.5 4852.97 10355 4877.02 10462.1 4925.13C10496 4940.43 10515.7 4951.91 10521.1 4959.56C10524.4 4963.94 10526.1 4968.31 10526.1 4972.68V4974.32L10280.1 5094.04C10279 5094.04 10277.3 5094.04 10275.1 5094.04C10273 5095.13 10271.3 5095.68 10270.2 5095.68C10259.3 5095.68 10235.2 5086.93 10198.1 5069.44C10193.7 5068.35 10190.4 5067.25 10188.2 5066.16C10082.2 5026.8 9982.14 5007.12 9888.12 5007.12C9854.22 5007.12 9824.16 5009.31 9797.92 5013.68C9760.75 5032.27 9733.96 5045.93 9717.56 5054.68L9697.88 5061.24H9665.08C9663.99 5061.24 9661.26 5061.24 9656.88 5061.24C9648.14 5062.33 9641.58 5062.88 9637.21 5062.88C9616.43 5061.79 9605.5 5055.23 9604.41 5043.2C9606.59 5032.27 9614.25 5021.34 9627.37 5010.4V5008.76C9627.37 4982.52 9641.58 4953.55 9670 4921.85C9702.8 4887.95 9768.4 4835.48 9866.8 4764.41C9918.18 4727.24 9958.09 4696.08 9986.51 4670.94C10076.2 4586.75 10125.9 4512.96 10135.7 4449.54C10137.9 4438.61 10139 4428.23 10139 4418.39C10139 4362.63 10120.4 4315.07 10083.3 4275.71C10068 4260.41 10052.1 4249.47 10035.7 4242.91C9998.54 4281.18 9955.35 4339.12 9906.15 4416.75C9903.97 4418.93 9901.23 4422.76 9897.96 4428.23C9890.3 4441.35 9884.29 4449.54 9879.92 4452.82L9724.12 4502.02C9718.66 4497.65 9715.92 4491.09 9715.92 4482.34C9715.92 4444.08 9751.45 4378.48 9822.52 4285.55C9825.8 4282.27 9827.98 4279.54 9829.08 4277.35C9864.06 4236.9 9894.13 4211.21 9919.27 4200.27C9975.03 4177.32 10046.1 4144.52 10132.5 4101.88C10151.1 4092.04 10180 4087.12 10219.4 4087.12C10224.8 4087.12 10230.9 4087.12 10237.4 4087.12H10242.3C10318.9 4087.12 10376.8 4121.01 10416.2 4188.79C10436.9 4225.97 10447.3 4266.97 10447.3 4311.79C10447.3 4389.41 10412.9 4464.85 10344 4538.1C10337.5 4544.66 10318.3 4563.79 10286.6 4595.5C10250.5 4629.39 10192.6 4676.95 10112.8 4738.17C10089.8 4755.67 10072.9 4768.79 10061.9 4777.53C10013.8 4813.61 9981.05 4845.86 9963.55 4874.29C10021.5 4860.08 10077.3 4852.97 10130.8 4852.97ZM10134.1 4169.12C10154.9 4160.37 10172.9 4152.72 10188.2 4146.16C10167.5 4153.81 10149.4 4161.46 10134.1 4169.12ZM10995.1 4982.52C11007.1 4961.75 11014.8 4936.06 11018 4905.45C11010.4 4842.04 10972.7 4795.02 10904.9 4764.41C10869.9 4749.11 10832.7 4741.45 10793.4 4741.45C10762.7 4758.95 10733.8 4767.69 10706.4 4767.69C10676.9 4766.6 10661.1 4760.04 10658.9 4748.01C10658.9 4717.4 10705.9 4689.52 10799.9 4664.38C10809.8 4662.19 10816.3 4660.55 10819.6 4659.46C10931.1 4588.39 10987.4 4505.85 10988.5 4411.83C10988.5 4341.86 10968.3 4291.02 10927.8 4259.31C10920.2 4252.75 10912.5 4247.83 10904.9 4244.55C10886.3 4263.14 10865.5 4289.92 10842.6 4324.91C10839.3 4329.28 10833.8 4337.48 10826.2 4349.51C10808.7 4376.84 10795 4394.88 10785.2 4403.63L10599.8 4465.94C10591.1 4456.1 10586.7 4445.17 10586.7 4433.15C10586.7 4388.32 10625.5 4329.83 10703.2 4257.67C10737.1 4225.97 10762.2 4206.83 10778.6 4200.27C10874.8 4159.82 10973.2 4121.01 11073.8 4083.84C11092.4 4078.37 11108.8 4075.64 11123 4075.64C11190.8 4075.64 11240 4112.81 11270.6 4187.15C11284.8 4223.23 11291.9 4260.41 11291.9 4298.67C11290.8 4414.56 11235.1 4512.96 11124.6 4593.86C11218.7 4610.26 11281 4653.99 11311.6 4725.05C11323.6 4752.39 11329.6 4781.36 11329.6 4811.97C11328.5 4877.57 11295.2 4933.87 11229.6 4980.88C11178.2 5016.96 11139.4 5039.92 11113.1 5049.76C11106.6 5051.95 11095.1 5055.77 11078.7 5061.24C11010.9 5083.11 10940.4 5108.25 10867.2 5136.68C10846.4 5143.24 10825.6 5146.52 10804.8 5146.52C10672.6 5145.42 10579.1 5096.77 10524.4 5000.56C10518.9 4983.07 10516.2 4973.23 10516.2 4971.04C10516.2 4925.13 10551.2 4882.49 10621.2 4843.13C10625.5 4840.94 10632.6 4837.12 10642.5 4831.65C10649 4828.37 10653.4 4826.18 10655.6 4825.09C10668.7 4820.72 10682.4 4818.53 10696.6 4818.53C10730.5 4818.53 10765.5 4838.76 10801.6 4879.21C10812.5 4890.14 10819.6 4897.25 10822.9 4900.53C10869.9 4946.45 10927.3 4973.78 10995.1 4982.52Z" fill="white"/>
<path d="M1200.22 4817.38C1211.65 4820.65 1211.65 4830.44 1200.22 4846.77C1188.79 4863.1 1172.46 4881.07 1151.23 4900.66C1131.63 4920.26 1109.59 4938.22 1085.09 4954.55C1062.23 4970.88 1043.45 4980.68 1028.76 4983.94C1015.69 4987.21 996.914 4990.47 972.42 4993.74C947.926 4995.37 919.349 4997.82 886.69 5001.09L928.33 5655.08C929.963 5681.21 914.45 5691.82 881.791 5686.93C850.765 5682.03 814.841 5667.33 774.017 5642.84C734.826 5619.97 697.268 5589.77 661.344 5552.21C625.419 5514.65 604.19 5476.28 597.659 5437.08C594.393 5424.02 593.576 5378.3 595.209 5299.92C596.842 5223.17 599.292 5131.72 602.557 5025.58C561.734 5028.85 521.727 5032.11 482.536 5035.38C443.345 5037.01 406.604 5039.46 372.312 5042.73C339.653 5044.36 310.26 5045.99 284.133 5047.63C259.639 5049.26 240.043 5050.08 225.347 5050.08C187.789 5126.82 155.946 5195.41 129.819 5255.83C103.692 5316.25 86.5462 5365.23 78.3815 5402.79C70.2167 5448.52 60.419 5473.83 48.9884 5478.72C37.5578 5485.26 26.9436 5479.54 17.1459 5461.58C8.98121 5443.62 4.08237 5416.67 2.44942 5380.75C0.816474 5346.46 5.71532 5311.35 17.1459 5275.42C22.0448 5255.83 35.9248 5223.98 58.7861 5179.9C81.6474 5135.81 110.224 5082.73 144.516 5020.68C121.655 5004.35 99.6098 4983.94 78.3815 4959.45C58.7861 4934.95 44.0896 4911.28 34.2919 4888.41C24.4942 4865.55 21.2283 4845.96 24.4942 4829.63C27.7601 4811.67 41.6402 4802.68 66.1344 4802.68H259.639C290.665 4742.27 323.324 4678.58 357.615 4611.63C391.907 4543.05 425.383 4473.65 458.042 4403.43C492.334 4333.21 524.176 4263 553.569 4192.78C582.962 4120.93 609.906 4050.71 634.4 3982.13C636.033 3956 636.033 3934.77 634.4 3918.44C634.4 3900.48 634.4 3888.23 634.4 3881.7C627.868 3832.71 631.951 3782.91 646.647 3732.29C661.344 3680.03 678.49 3636.76 698.085 3602.47C719.313 3568.18 739.725 3546.13 759.32 3536.33C780.549 3524.9 792.796 3534.7 796.062 3565.73C797.695 3580.42 800.961 3627.78 805.859 3707.79C812.391 3786.17 818.923 3884.15 825.455 4001.72C833.62 4117.66 841.784 4246.67 849.949 4388.73C859.747 4529.17 868.728 4668.78 876.893 4807.58C961.806 4809.22 1034.47 4810.85 1094.89 4812.48C1155.31 4812.48 1190.42 4814.12 1200.22 4817.38ZM629.501 4195.23C587.044 4301.37 541.322 4405.88 492.334 4508.75C444.978 4611.63 397.623 4709.61 350.267 4802.68C391.091 4802.68 432.731 4803.5 475.188 4805.13C517.644 4805.13 562.55 4805.13 609.906 4805.13L629.501 4195.23ZM1531.77 4606.73C1541.57 4611.63 1555.45 4626.33 1573.41 4650.82C1593 4675.31 1613.42 4700.63 1634.64 4726.75C1657.51 4752.88 1680.37 4775.74 1703.23 4795.34C1726.09 4813.3 1747.32 4819.83 1766.91 4814.93C1786.51 4810.03 1806.1 4798.6 1825.7 4780.64C1845.29 4762.68 1863.26 4744.71 1879.59 4726.75C1897.55 4707.16 1913.88 4691.64 1928.57 4680.21C1943.27 4667.15 1954.7 4663.88 1962.87 4670.42C1971.03 4676.95 1965.32 4697.36 1945.72 4731.65C1927.76 4765.94 1901.63 4803.5 1867.34 4844.32C1834.68 4883.52 1797.12 4921.07 1754.67 4957C1713.84 4992.92 1675.47 5015.78 1639.54 5025.58C1608.52 5033.75 1579.12 5028.85 1551.36 5010.89C1523.6 4991.29 1495.84 4967.61 1468.08 4939.85C1441.96 4910.46 1415.01 4881.07 1387.25 4851.67C1361.13 4822.28 1334.18 4800.24 1306.42 4785.54C1294.99 4842.69 1282.74 4894.13 1269.68 4939.85C1256.62 4985.57 1245.19 5011.7 1235.39 5018.23C1212.53 5031.3 1188.85 5030.48 1164.36 5015.78C1141.49 5001.09 1123.53 4986.39 1110.47 4971.69C1105.57 4963.53 1099.85 4942.3 1093.32 4908.01C1088.42 4873.72 1084.34 4836.16 1081.07 4795.34C1077.81 4754.51 1075.36 4716.95 1073.73 4682.66C1072.09 4646.74 1072.91 4623.88 1076.18 4614.08C1077.81 4604.28 1090.06 4590.4 1112.92 4572.44C1135.78 4554.48 1161.09 4537.33 1188.85 4521C1218.24 4504.67 1246 4492.42 1272.13 4484.26C1298.26 4476.1 1316.22 4476.1 1326.02 4484.26C1334.18 4490.79 1337.45 4511.2 1335.81 4545.5C1335.81 4578.15 1333.37 4617.34 1328.47 4663.07C1346.43 4651.64 1366.02 4641.84 1387.25 4633.67C1408.48 4625.51 1428.08 4618.98 1446.04 4614.08C1465.63 4609.18 1482.78 4605.91 1497.48 4604.28C1513.81 4602.65 1525.24 4603.46 1531.77 4606.73ZM1956.63 4648.37C1969.69 4641.84 1990.92 4632.86 2020.31 4621.43C2049.71 4608.36 2079.92 4596.93 2110.94 4587.14C2143.6 4577.34 2173.81 4570.81 2201.57 4567.54C2229.33 4564.27 2247.29 4567.54 2255.46 4577.34C2263.62 4587.14 2272.6 4610 2282.4 4645.92C2293.83 4681.85 2305.26 4719.4 2316.69 4758.59C2329.76 4797.79 2344.45 4833.71 2360.78 4866.37C2377.11 4897.4 2395.89 4913.72 2417.12 4915.36C2436.71 4916.99 2455.49 4913.72 2473.46 4905.56C2491.42 4897.4 2507.75 4886.78 2522.44 4873.72C2537.14 4860.65 2549.39 4847.59 2559.19 4834.53C2570.62 4819.83 2578.78 4807.58 2583.68 4797.79C2588.58 4787.99 2595.11 4783.09 2603.27 4783.09C2613.07 4781.46 2617.16 4787.17 2615.52 4800.24C2615.52 4811.67 2608.17 4831.26 2593.48 4859.02C2578.78 4886.78 2551.02 4923.52 2510.2 4969.25C2426.92 5062.32 2354.25 5117.03 2292.2 5133.36C2231.78 5149.69 2186.87 5136.62 2157.48 5094.17C2141.15 5071.3 2129.72 5037.83 2123.19 4993.74C2101.96 5016.6 2076.65 5039.46 2047.26 5062.32C2019.5 5085.18 1991.74 5103.15 1963.98 5116.21C1936.22 5129.27 1910.09 5134.99 1885.59 5133.36C1862.73 5133.36 1844.77 5121.93 1831.71 5099.06C1817.01 5071.3 1815.38 5041.91 1826.81 5010.89C1836.61 4978.23 1854.57 4946.38 1880.7 4915.36C1908.46 4882.7 1941.11 4850.86 1978.67 4819.83C2016.23 4788.8 2053.79 4761.04 2091.35 4736.55C2088.08 4705.52 2084 4685.93 2079.1 4677.76C2075.83 4672.87 2065.22 4676.13 2047.26 4687.56C2030.93 4697.36 2012.15 4709.61 1990.92 4724.3C1969.69 4737.37 1948.46 4748.8 1927.23 4758.59C1906.01 4768.39 1889.68 4770.03 1878.25 4763.49C1865.18 4756.96 1859.47 4748.8 1861.1 4739C1862.73 4727.57 1867.63 4716.14 1875.8 4704.71C1885.59 4693.28 1897.84 4682.66 1912.54 4672.87C1927.23 4663.07 1941.93 4654.9 1956.63 4648.37ZM2108.49 4895.76C2105.23 4879.43 2102.78 4863.92 2101.14 4849.22C2101.14 4832.89 2100.33 4817.38 2098.69 4802.68C2069.3 4825.55 2048.89 4849.22 2037.46 4873.72C2027.66 4896.58 2024.4 4912.91 2027.66 4922.71C2030.93 4934.14 2039.09 4939.85 2052.16 4939.85C2065.22 4938.22 2084 4923.52 2108.49 4895.76ZM2614.43 4648.37C2627.49 4641.84 2648.72 4632.86 2678.12 4621.43C2707.51 4608.36 2737.72 4596.93 2768.74 4587.14C2801.4 4577.34 2831.61 4570.81 2859.37 4567.54C2887.13 4564.27 2905.1 4567.54 2913.26 4577.34C2921.43 4587.14 2930.41 4610 2940.2 4645.92C2951.63 4681.85 2963.07 4719.4 2974.5 4758.59C2987.56 4797.79 3002.26 4833.71 3018.59 4866.37C3034.92 4897.4 3053.69 4913.72 3074.92 4915.36C3094.52 4916.99 3113.3 4913.72 3131.26 4905.56C3149.22 4897.4 3165.55 4886.78 3180.25 4873.72C3194.94 4860.65 3207.19 4847.59 3216.99 4834.53C3228.42 4819.83 3236.58 4807.58 3241.48 4797.79C3246.38 4787.99 3252.91 4783.09 3261.08 4783.09C3270.88 4781.46 3274.96 4787.17 3273.33 4800.24C3273.33 4811.67 3265.98 4831.26 3251.28 4859.02C3236.58 4886.78 3208.82 4923.52 3168 4969.25C3084.72 5062.32 3012.05 5117.03 2950 5133.36C2889.58 5149.69 2844.68 5136.62 2815.28 5094.17C2798.95 5071.3 2787.52 5037.83 2780.99 4993.74C2759.76 5016.6 2734.45 5039.46 2705.06 5062.32C2677.3 5085.18 2649.54 5103.15 2621.78 5116.21C2594.02 5129.27 2567.89 5134.99 2543.4 5133.36C2520.54 5133.36 2502.57 5121.93 2489.51 5099.06C2474.81 5071.3 2473.18 5041.91 2484.61 5010.89C2494.41 4978.23 2512.37 4946.38 2538.5 4915.36C2566.26 4882.7 2598.92 4850.86 2636.48 4819.83C2674.03 4788.8 2711.59 4761.04 2749.15 4736.55C2745.88 4705.52 2741.8 4685.93 2736.9 4677.76C2733.64 4672.87 2723.02 4676.13 2705.06 4687.56C2688.73 4697.36 2669.95 4709.61 2648.72 4724.3C2627.49 4737.37 2606.27 4748.8 2585.04 4758.59C2563.81 4768.39 2547.48 4770.03 2536.05 4763.49C2522.99 4756.96 2517.27 4748.8 2518.9 4739C2520.54 4727.57 2525.44 4716.14 2533.6 4704.71C2543.4 4693.28 2555.65 4682.66 2570.34 4672.87C2585.04 4663.07 2599.73 4654.9 2614.43 4648.37ZM2766.3 4895.76C2763.03 4879.43 2760.58 4863.92 2758.95 4849.22C2758.95 4832.89 2758.13 4817.38 2756.5 4802.68C2727.1 4825.55 2706.69 4849.22 2695.26 4873.72C2685.46 4896.58 2682.2 4912.91 2685.46 4922.71C2688.73 4934.14 2696.89 4939.85 2709.96 4939.85C2723.02 4938.22 2741.8 4923.52 2766.3 4895.76ZM3656.79 3472.65C3661.69 3443.26 3669.04 3426.11 3678.84 3421.21C3690.27 3416.31 3700.88 3418.76 3710.68 3428.56C3720.48 3438.36 3729.46 3454.69 3737.62 3477.55C3745.79 3498.78 3749.87 3521.64 3749.87 3546.13C3749.87 3591.85 3746.61 3657.17 3740.07 3742.09C3735.18 3827 3730.28 3920.08 3725.38 4021.32C3720.48 4122.56 3716.4 4227.07 3713.13 4334.85C3711.5 4440.99 3713.95 4538.96 3720.48 4628.78C3727.01 4718.59 3738.44 4794.52 3754.77 4856.57C3772.73 4916.99 3798.86 4952.1 3833.15 4961.9C3860.91 4970.06 3887.86 4964.35 3913.98 4944.75C3940.11 4925.16 3967.87 4888.41 3997.26 4834.53C4026.66 4780.64 4047.07 4758.59 4058.5 4768.39C4069.93 4778.19 4064.21 4806.77 4041.35 4854.12C3987.47 4968.43 3937.66 5054.16 3891.94 5111.31C3847.85 5168.46 3808.66 5202.76 3774.37 5214.19C3740.07 5227.25 3711.5 5219.9 3688.64 5192.14C3665.77 5166.02 3650.26 5126.82 3642.1 5074.57C3638.83 5051.71 3635.57 5016.6 3632.3 4969.25C3630.67 4921.89 3629.03 4867.19 3627.4 4805.13C3614.34 4873.72 3595.56 4939.04 3571.06 5001.09C3546.57 5063.14 3520.44 5103.96 3492.68 5123.56C3460.02 5148.05 3421.65 5155.4 3377.56 5145.6C3335.1 5137.44 3295.91 5119.48 3259.99 5091.72C3225.7 5062.32 3199.57 5026.4 3181.61 4983.94C3163.64 4941.48 3163.64 4899.03 3181.61 4856.57C3193.04 4828.81 3216.71 4800.24 3252.64 4770.84C3290.2 4739.82 3331.02 4709.61 3375.11 4680.21C3420.83 4649.19 3466.56 4619.79 3512.28 4592.03C3558 4562.64 3596.37 4534.88 3627.4 4508.75C3627.4 4399.35 3628.22 4286.67 3629.85 4170.73C3633.12 4054.79 3635.57 3947.84 3637.2 3849.86C3640.46 3751.88 3643.73 3668.6 3647 3600.02C3650.26 3531.44 3653.53 3488.98 3656.79 3472.65ZM3380.01 4832.08C3376.74 4843.51 3382.46 4857.39 3397.16 4873.72C3411.85 4888.41 3431.45 4893.31 3455.94 4888.41C3480.44 4883.52 3507.38 4861.47 3536.77 4822.28C3567.8 4783.09 3598.01 4715.32 3627.4 4618.98V4599.38C3607.81 4615.71 3584.94 4633.67 3558.82 4653.27C3532.69 4672.87 3506.56 4693.28 3480.44 4714.51C3455.94 4734.1 3433.9 4754.51 3414.3 4775.74C3394.71 4795.34 3383.28 4814.12 3380.01 4832.08ZM4387.54 4454.87C4390.81 4409.14 4398.16 4384.65 4409.59 4381.38C4421.02 4376.49 4432.45 4383.02 4443.88 4400.98C4455.31 4417.31 4465.11 4440.17 4473.27 4469.56C4483.07 4497.32 4487.15 4521 4485.52 4540.6C4478.99 4622.24 4476.54 4709.61 4478.17 4802.68C4481.44 4894.13 4485.52 4982.31 4490.42 5067.22C4495.32 5152.14 4500.22 5228.07 4505.12 5295.02C4511.65 5361.97 4514.91 5410.96 4514.91 5441.98C4514.91 5473.01 4505.93 5503.22 4487.97 5532.61C4471.64 5563.64 4453.68 5588.13 4434.08 5606.09C4414.49 5624.06 4397.34 5633.04 4382.65 5633.04C4367.95 5633.04 4363.05 5618.34 4367.95 5588.95C4369.58 5574.25 4371.21 5548.12 4372.85 5510.57C4374.48 5473.01 4376.11 5428.1 4377.75 5375.85C4379.38 5323.59 4380.2 5265.62 4380.2 5201.94C4381.83 5139.89 4382.65 5077.02 4382.65 5013.33C4358.15 5031.3 4330.39 5045.99 4299.36 5057.42C4269.97 5068.85 4245.48 5071.3 4225.88 5064.77C4211.19 5059.87 4192.41 5043.54 4169.55 5015.78C4148.32 4986.39 4124.64 4954.55 4098.51 4920.26C4072.39 4885.96 4044.63 4854.12 4015.23 4824.73C3987.47 4795.34 3959.71 4777.37 3931.95 4770.84C3902.56 4764.31 3893.58 4751.25 3905.01 4731.65C3916.44 4710.42 3939.3 4690.83 3973.59 4672.87C4007.88 4653.27 4047.07 4639.39 4091.16 4631.23C4136.89 4621.43 4177.71 4624.69 4213.64 4641.02C4229.96 4649.19 4245.48 4662.25 4260.17 4680.21C4274.87 4696.54 4288.75 4716.14 4301.81 4739C4314.88 4761.86 4327.94 4786.36 4341.01 4812.48C4355.7 4836.98 4369.58 4860.65 4382.65 4883.52C4382.65 4832.89 4382.65 4784.72 4382.65 4739C4382.65 4691.64 4382.65 4649.19 4382.65 4611.63C4384.28 4572.44 4385.09 4539.78 4385.09 4513.65C4386.73 4485.89 4387.54 4466.3 4387.54 4454.87ZM4702.66 4648.37C4715.72 4641.84 4736.95 4632.86 4766.34 4621.43C4795.74 4608.36 4825.95 4596.93 4856.97 4587.14C4889.63 4577.34 4919.84 4570.81 4947.6 4567.54C4975.36 4564.27 4993.32 4567.54 5001.49 4577.34C5009.65 4587.14 5018.63 4610 5028.43 4645.92C5039.86 4681.85 5051.29 4719.4 5062.72 4758.59C5075.79 4797.79 5090.48 4833.71 5106.81 4866.37C5123.14 4897.4 5141.92 4913.72 5163.15 4915.36C5182.74 4916.99 5201.52 4913.72 5219.49 4905.56C5237.45 4897.4 5253.78 4886.78 5268.47 4873.72C5283.17 4860.65 5295.42 4847.59 5305.22 4834.53C5316.65 4819.83 5324.81 4807.58 5329.71 4797.79C5334.61 4787.99 5341.14 4783.09 5349.31 4783.09C5359.1 4781.46 5363.19 4787.17 5361.55 4800.24C5361.55 4811.67 5354.2 4831.26 5339.51 4859.02C5324.81 4886.78 5297.05 4923.52 5256.23 4969.25C5172.95 5062.32 5100.28 5117.03 5038.23 5133.36C4977.81 5149.69 4932.9 5136.62 4903.51 5094.17C4887.18 5071.3 4875.75 5037.83 4869.22 4993.74C4847.99 5016.6 4822.68 5039.46 4793.29 5062.32C4765.53 5085.18 4737.77 5103.15 4710.01 5116.21C4682.25 5129.27 4656.12 5134.99 4631.62 5133.36C4608.76 5133.36 4590.8 5121.93 4577.74 5099.06C4563.04 5071.3 4561.41 5041.91 4572.84 5010.89C4582.64 4978.23 4600.6 4946.38 4626.73 4915.36C4654.49 4882.7 4687.15 4850.86 4724.7 4819.83C4762.26 4788.8 4799.82 4761.04 4837.38 4736.55C4834.11 4705.52 4830.03 4685.93 4825.13 4677.76C4821.86 4672.87 4811.25 4676.13 4793.29 4687.56C4776.96 4697.36 4758.18 4709.61 4736.95 4724.3C4715.72 4737.37 4694.49 4748.8 4673.27 4758.59C4652.04 4768.39 4635.71 4770.03 4624.28 4763.49C4611.21 4756.96 4605.5 4748.8 4607.13 4739C4608.76 4727.57 4613.66 4716.14 4621.83 4704.71C4631.62 4693.28 4643.87 4682.66 4658.57 4672.87C4673.27 4663.07 4687.96 4654.9 4702.66 4648.37ZM4854.52 4895.76C4851.26 4879.43 4848.81 4863.92 4847.17 4849.22C4847.17 4832.89 4846.36 4817.38 4844.72 4802.68C4815.33 4825.55 4794.92 4849.22 4783.49 4873.72C4773.69 4896.58 4770.43 4912.91 4773.69 4922.71C4776.96 4934.14 4785.12 4939.85 4798.19 4939.85C4811.25 4938.22 4830.03 4923.52 4854.52 4895.76ZM5705.83 4606.73C5715.63 4611.63 5729.51 4626.33 5747.47 4650.82C5767.07 4675.31 5787.48 4700.63 5808.71 4726.75C5831.57 4752.88 5854.43 4775.74 5877.29 4795.34C5900.15 4813.3 5921.38 4819.83 5940.97 4814.93C5960.57 4810.03 5980.16 4798.6 5999.76 4780.64C6019.36 4762.68 6037.32 4744.71 6053.65 4726.75C6071.61 4707.16 6087.94 4691.64 6102.64 4680.21C6117.33 4667.15 6128.76 4663.88 6136.93 4670.42C6145.09 4676.95 6139.38 4697.36 6119.78 4731.65C6101.82 4765.94 6075.69 4803.5 6041.4 4844.32C6008.74 4883.52 5971.18 4921.07 5928.73 4957C5887.9 4992.92 5849.53 5015.78 5813.6 5025.58C5782.58 5033.75 5753.19 5028.85 5725.43 5010.89C5697.67 4991.29 5669.9 4967.61 5642.14 4939.85C5616.02 4910.46 5589.07 4881.07 5561.31 4851.67C5535.19 4822.28 5508.24 4800.24 5480.48 4785.54C5469.05 4842.69 5456.81 4894.13 5443.74 4939.85C5430.68 4985.57 5419.25 5011.7 5409.45 5018.23C5386.59 5031.3 5362.91 5030.48 5338.42 5015.78C5315.56 5001.09 5297.59 4986.39 5284.53 4971.69C5279.63 4963.53 5273.92 4942.3 5267.38 4908.01C5262.48 4873.72 5258.4 4836.16 5255.14 4795.34C5251.87 4754.51 5249.42 4716.95 5247.79 4682.66C5246.16 4646.74 5246.97 4623.88 5250.24 4614.08C5251.87 4604.28 5264.12 4590.4 5286.98 4572.44C5309.84 4554.48 5335.15 4537.33 5362.91 4521C5392.3 4504.67 5420.06 4492.42 5446.19 4484.26C5472.32 4476.1 5490.28 4476.1 5500.08 4484.26C5508.24 4490.79 5511.51 4511.2 5509.88 4545.5C5509.88 4578.15 5507.43 4617.34 5502.53 4663.07C5520.49 4651.64 5540.09 4641.84 5561.31 4633.67C5582.54 4625.51 5602.14 4618.98 5620.1 4614.08C5639.7 4609.18 5656.84 4605.91 5671.54 4604.28C5687.87 4602.65 5699.3 4603.46 5705.83 4606.73ZM5212.16 4366.69C5277.47 4299.74 5342.79 4249.12 5408.11 4214.82C5471.8 4180.53 5537.93 4157.67 5606.51 4146.24C5673.46 4133.18 5743.68 4128.28 5817.16 4131.54C5889.01 4134.81 5964.13 4141.34 6042.51 4151.14C6045.78 3940.49 6043.33 3706.16 6035.16 3448.15C6035.16 3431.83 6040.06 3413.86 6049.86 3394.27C6061.29 3373.04 6073.54 3355.08 6086.6 3340.38C6099.66 3325.68 6111.91 3315.07 6123.34 3308.54C6134.77 3300.37 6141.3 3300.37 6142.94 3308.54C6147.84 3337.93 6151.1 3381.2 6152.73 3438.36C6154.37 3493.88 6154.37 3560.01 6152.73 3636.76C6152.73 3711.88 6151.1 3794.34 6147.84 3884.15C6146.2 3973.96 6143.75 4067.04 6140.49 4163.39C6143.75 4165.02 6150.28 4165.84 6160.08 4165.84C6284.19 4180.53 6400.94 4191.96 6510.35 4200.13C6619.76 4206.66 6720.18 4208.29 6811.63 4205.03C6904.71 4200.13 6988.8 4188.7 7063.92 4170.73C7139.03 4152.77 7204.35 4125.01 7259.87 4087.45C7290.9 4066.23 7314.58 4053.98 7330.91 4050.71C7348.87 4045.81 7350.5 4057.24 7335.8 4085C7319.47 4116.03 7292.53 4151.14 7254.97 4190.33C7219.05 4227.89 7170.88 4264.63 7110.46 4300.55C7050.04 4336.48 6978.19 4368.32 6894.91 4396.08C6813.26 4422.21 6719.37 4439.35 6613.23 4447.52C6543.01 4454.05 6466.26 4457.32 6382.98 4457.32C6301.33 4457.32 6217.24 4455.68 6130.69 4452.42C6125.79 4573.26 6121.71 4690.01 6118.44 4802.68C6116.81 4915.36 6115.99 5015.78 6115.99 5103.96C6115.99 5190.51 6118.44 5260.73 6123.34 5314.61C6128.24 5368.5 6136.4 5397.08 6147.84 5400.34C6164.16 5405.24 6178.04 5401.98 6189.48 5390.55C6202.54 5380.75 6213.15 5366.05 6221.32 5346.46C6229.48 5326.86 6236.01 5304.82 6240.91 5280.32C6245.81 5257.46 6249.08 5235.42 6250.71 5214.19C6253.98 5178.26 6263.77 5164.38 6280.1 5172.55C6296.43 5182.34 6312.76 5202.76 6329.09 5233.78C6347.05 5266.44 6360.93 5304.82 6370.73 5348.91C6382.16 5394.63 6383.8 5434.64 6375.63 5468.93C6370.73 5490.16 6360.93 5513.02 6346.24 5537.51C6333.17 5563.64 6316.03 5586.5 6294.8 5606.09C6275.21 5627.32 6251.53 5642.84 6223.77 5652.63C6196.01 5664.06 6165.8 5665.7 6133.14 5657.53C6098.85 5647.73 6074.35 5615.08 6059.66 5559.56C6044.96 5505.67 6035.98 5428.1 6032.71 5326.86C6029.45 5227.25 6028.63 5104.78 6030.26 4959.45C6033.53 4812.48 6036.79 4642.66 6040.06 4449.97C5961.68 4446.7 5884.93 4443.44 5809.82 4440.17C5734.7 4436.9 5665.3 4434.45 5601.61 4432.82C5537.93 4429.56 5482.41 4428.74 5435.05 4430.37C5387.7 4430.37 5352.59 4432.82 5329.73 4437.72C5252.98 4455.68 5203.18 4460.58 5180.31 4452.42C5155.82 4442.62 5166.43 4414.04 5212.16 4366.69ZM6331.62 4648.37C6344.68 4641.84 6365.91 4632.86 6395.3 4621.43C6424.7 4608.36 6454.91 4596.93 6485.93 4587.14C6518.59 4577.34 6548.8 4570.81 6576.56 4567.54C6604.32 4564.27 6622.28 4567.54 6630.45 4577.34C6638.61 4587.14 6647.59 4610 6657.39 4645.92C6668.82 4681.85 6680.25 4719.4 6691.68 4758.59C6704.75 4797.79 6719.44 4833.71 6735.77 4866.37C6752.1 4897.4 6770.88 4913.72 6792.11 4915.36C6811.71 4916.99 6830.48 4913.72 6848.45 4905.56C6866.41 4897.4 6882.74 4886.78 6897.43 4873.72C6912.13 4860.65 6924.38 4847.59 6934.18 4834.53C6945.61 4819.83 6953.77 4807.58 6958.67 4797.79C6963.57 4787.99 6970.1 4783.09 6978.27 4783.09C6988.06 4781.46 6992.15 4787.17 6990.51 4800.24C6990.51 4811.67 6983.16 4831.26 6968.47 4859.02C6953.77 4886.78 6926.01 4923.52 6885.19 4969.25C6801.91 5062.32 6729.24 5117.03 6667.19 5133.36C6606.77 5149.69 6561.86 5136.62 6532.47 5094.17C6516.14 5071.3 6504.71 5037.83 6498.18 4993.74C6476.95 5016.6 6451.64 5039.46 6422.25 5062.32C6394.49 5085.18 6366.73 5103.15 6338.97 5116.21C6311.21 5129.27 6285.08 5134.99 6260.59 5133.36C6237.72 5133.36 6219.76 5121.93 6206.7 5099.06C6192 5071.3 6190.37 5041.91 6201.8 5010.89C6211.6 4978.23 6229.56 4946.38 6255.69 4915.36C6283.45 4882.7 6316.11 4850.86 6353.66 4819.83C6391.22 4788.8 6428.78 4761.04 6466.34 4736.55C6463.07 4705.52 6458.99 4685.93 6454.09 4677.76C6450.82 4672.87 6440.21 4676.13 6422.25 4687.56C6405.92 4697.36 6387.14 4709.61 6365.91 4724.3C6344.68 4737.37 6323.45 4748.8 6302.23 4758.59C6281 4768.39 6264.67 4770.03 6253.24 4763.49C6240.17 4756.96 6234.46 4748.8 6236.09 4739C6237.72 4727.57 6242.62 4716.14 6250.79 4704.71C6260.59 4693.28 6272.83 4682.66 6287.53 4672.87C6302.23 4663.07 6316.92 4654.9 6331.62 4648.37ZM6483.48 4895.76C6480.22 4879.43 6477.77 4863.92 6476.13 4849.22C6476.13 4832.89 6475.32 4817.38 6473.69 4802.68C6444.29 4825.55 6423.88 4849.22 6412.45 4873.72C6402.65 4896.58 6399.39 4912.91 6402.65 4922.71C6405.92 4934.14 6414.08 4939.85 6427.15 4939.85C6440.21 4938.22 6458.99 4923.52 6483.48 4895.76Z" fill="white"/>
</svg>
