<svg width="11265" height="3068" viewBox="0 0 11265 3068" fill="none" xmlns="http://www.w3.org/2000/svg">
<path d="M587.706 2063.46C583.734 2046.51 579.655 2029.62 575.841 2012.61C557.382 1934.39 543.06 1855.25 532.935 1775.52C518.05 1646.05 525.201 1518.93 573.298 1396.19C606.012 1314.71 651.896 1239.15 709.115 1172.55C764.84 1106.39 825.121 1044.68 895.042 993.35C941.604 959.184 991.767 931.11 1048.66 919.191C1068.72 914.694 1089.39 913.53 1109.84 915.748C1162.23 922.634 1188.13 966.123 1172.24 1017.03C1160.58 1054.11 1134.47 1080.59 1103.96 1102.52C1087.84 1113.62 1070.93 1123.53 1053.37 1132.19C993.833 1163.07 934.929 1194.85 882.329 1237.02C789.101 1311.76 724.053 1406.84 679.134 1516.54C642.69 1605.43 621.29 1698.23 607.835 1793.05C596.08 1879.89 590.521 1967.46 591.202 2055.09C591.202 2057.74 590.726 2060.39 590.461 2062.99L587.706 2063.46Z" fill="black"/>
<path d="M1589.59 2702.88C1569.68 2699.96 1549.71 2697.1 1529.79 2694.14C1446.57 2681.69 1363.67 2667.33 1282.47 2644.66C1175.2 2614.73 1075.2 2570.08 988.482 2498.46C909.026 2432.88 848.11 2352.53 799.536 2262.48C756.735 2183.02 719.391 2101.34 698.415 2013.14C685.225 1957.58 679.08 1901.22 691.317 1844.65C695 1827.92 701.178 1811.85 709.644 1796.97C730.833 1760.42 771.037 1749.72 808.647 1768.9C827.568 1779.01 843.276 1794.22 853.99 1812.81C872.462 1843.55 883.761 1878.06 887.043 1913.77C894.406 1982.05 901.557 2050.38 921.103 2116.65C956.753 2237.63 1024.71 2337.96 1116.09 2423.4C1207.46 2508.84 1312.08 2573.79 1424.32 2627.55C1475.34 2652.02 1527.99 2673.11 1579.9 2695.67C1583.29 2697.16 1586.68 2698.43 1590.12 2699.8L1589.59 2702.88Z" fill="black"/>
<path d="M852.77 829.457C854.318 828.236 855.946 827.121 857.643 826.119C952.514 775.585 1047.86 726.111 1149.25 689.508C1222.61 663.023 1297.56 644.271 1375.8 639.504C1469.39 633.703 1563.19 646.948 1651.51 678.437C1769.75 720.178 1878.92 778.711 1976.17 858.167C2020.08 894.028 2057.54 936.193 2082.11 988.104C2093.18 1011.3 2101.24 1035.78 2097.05 1061.73C2091.28 1097.65 2062.36 1122.07 2025.38 1124.03C2003.65 1124.83 1982.07 1120.17 1962.61 1110.47C1938.16 1099.31 1915.99 1083.7 1897.25 1064.43C1863.5 1029.16 1830.93 992.712 1796.07 958.493C1695.11 859.597 1572.96 802.494 1434.28 779.929C1349.26 766.931 1262.97 764.37 1177.32 772.301C1069.79 781.147 964.644 802.495 860.451 829.563C858.173 830.145 855.842 830.516 853.511 831.046L852.77 829.457Z" fill="black"/>
<path d="M2559.96 1844.38C2559.57 1846.64 2559.04 1848.86 2558.37 1851.05C2521.72 1952.81 2483.79 2054.04 2432.57 2149.65C2376.47 2254.37 2304.7 2345.64 2206.86 2415.03C2122.8 2474.73 2029.3 2513.19 1930.3 2539.36C1864.78 2556.62 1798.62 2571.14 1730.87 2575.32C1667.3 2579.45 1604.21 2576.38 1544.41 2551.59C1526.96 2544.44 1510.73 2534.61 1496.31 2522.46C1462.04 2493.11 1460.45 2449.25 1490.38 2415.46C1511.57 2391.3 1540.17 2380.87 1570.58 2374.46C1600.98 2368.05 1632.76 2369.8 1663.96 2373.08C1726.58 2379.38 1789.24 2384.68 1852.27 2379.38C1972.36 2369.43 2080.05 2326.41 2179.16 2259.09C2278.26 2191.76 2360.74 2108.81 2433.73 2015.42C2475.37 1962.13 2513.19 1905.83 2552.65 1850.9C2554.4 1848.51 2556.1 1846.02 2557.95 1843.59L2559.96 1844.38Z" fill="black"/>
<path d="M2075.12 752.866C2178.68 842.917 2281.97 932.967 2363.87 1044.73C2433.84 1140.08 2479.08 1245.71 2495.87 1363.04C2504.68 1427.1 2506.35 1491.95 2500.85 1556.38C2495.72 1631.83 2483.12 1706.58 2463.24 1779.54C2446.5 1838.77 2422.29 1894.91 2382.72 1942.8C2370.36 1957.98 2355.98 1971.4 2339.98 1982.69C2287.64 2018.71 2229.43 1994.82 2215.92 1932.79C2207.23 1893.01 2214.17 1854.55 2230.12 1818.05C2247.23 1778.75 2267.2 1740.72 2285.1 1701.52C2329.09 1607.47 2349.84 1504.23 2345.59 1400.49C2341.07 1314.95 2323.4 1230.62 2293.2 1150.46C2244.79 1017.72 2173.6 897.423 2092.34 782.636C2085.72 773.26 2079.15 763.884 2072.53 754.561L2075.12 752.866Z" fill="black"/>
<path d="M767.908 493.624C766.849 522.705 766.054 551.892 764.73 580.92C760.688 679.49 750.498 777.712 734.219 875.013C720.552 953.993 703.496 1032.07 668.111 1104.8C615.141 1213.55 528.64 1276.27 408.555 1290.2C301.29 1302.75 204.512 1272.56 117.587 1209.89C76.4821 1180.23 40.8855 1145.06 18.0021 1098.97C13.0831 1087.32 8.87311 1075.38 5.39514 1063.22C4.08557 1060.47 2.91882 1057.66 1.89917 1054.8C0.287842 1050.8 -0.312683 1046.47 0.151062 1042.19C11.063 1007.07 36.436 989.218 71.7145 983.444C114.091 976.346 146.509 993.456 173.789 1024.13C189.076 1042.64 205.343 1060.32 222.522 1077.1C254.983 1107.81 296.154 1127.72 340.382 1134.09C395.842 1141.67 443.993 1123.5 487.587 1090.71C534.519 1055.43 569.427 1009.61 599.726 960.031C673.303 839.47 721.559 709.003 750.481 571.12C755.778 545.377 760.069 519.315 764.783 493.412L767.908 493.624Z" fill="black"/>
<path d="M1555.59 3068C1556.75 3065.43 1558.04 3062.92 1559.46 3060.48C1646.59 2932.24 1740.67 2809.5 1851.91 2701.02C1899.1 2654.99 1949.9 2613.51 2010.34 2585.65C2121.58 2534.37 2228.74 2548.25 2328.85 2613.56C2436.17 2683.54 2496.67 2785.24 2514.25 2911.9C2518.68 2939.2 2516.72 2967.16 2508.53 2993.58C2494.86 3034.68 2466.9 3049.14 2422.77 3037.7C2374.3 3025.09 2345.75 2986.9 2341.78 2930.86C2337.97 2877.89 2322.18 2829 2289.07 2786.88C2244.58 2730.21 2184.35 2710.71 2114.59 2715.8C2048.96 2720.57 1989.1 2744.4 1931.26 2774.07C1790.04 2845.52 1668.79 2943.1 1563.8 3061.22C1562 3063.23 1560.2 3065.3 1558.5 3067.31C1557.97 3067.63 1557.23 3067.58 1555.59 3068Z" fill="black"/>
<path d="M2855.06 2127.83C2854.27 2126.98 2853.42 2126.19 2852.73 2125.29C2765.75 2000.12 2685.87 1871.03 2624.53 1730.81C2600.38 1675.62 2580.67 1619.04 2572.41 1558.92C2556.52 1442.39 2594.13 1345.77 2680.74 1267.58C2743.72 1210.8 2818.46 1180.02 2902.31 1169.32C2962.49 1161.7 3021.65 1165.24 3079.18 1185.8C3101.03 1193.27 3121.04 1205.27 3137.93 1221.02C3157.58 1239.72 3159.11 1272.56 3147.83 1294.23C3121.35 1344.18 3072.61 1363.99 3014.61 1347.2C2967.94 1333.48 2920.9 1328.55 2873.23 1339.57C2798.17 1356.89 2752.46 1405.57 2729.73 1477.3C2713.1 1529.84 2710.35 1583.98 2714.16 1638.48C2725.92 1806.72 2774.65 1964.52 2850.98 2114.21C2853.1 2118.35 2854.9 2122.64 2856.86 2126.82L2855.06 2127.83Z" fill="black"/>
<path d="M189.156 1967.43C205.841 1974.47 222.58 1981.3 239.16 1988.61C364.806 2042.91 487.275 2103.24 601.321 2179.31C647.405 2210.14 690.947 2244.15 728.45 2285.57C813.627 2380.28 837.305 2489.61 797.842 2609.43C752.446 2747.47 657.046 2837.58 517.892 2880.22C493.129 2888 466.764 2889.18 441.402 2883.66C414.917 2877.78 399.025 2860.46 395.741 2834.5C388.643 2777.29 414.917 2734.71 468.947 2714.37C495.432 2704.35 522.871 2695.35 547.608 2681.74C598.831 2653.56 636.334 2612.87 650.901 2554.18C663.031 2505.87 653.973 2459.42 636.281 2414.13C615.782 2361.69 584.529 2315.76 549.356 2272.38C451.255 2151.29 333.183 2053.77 198.479 1975.74C194.929 1973.73 191.539 1971.56 187.884 1969.49L189.156 1967.43Z" fill="black"/>
<path d="M2414.72 597.979C2388.23 604.071 2362.17 610.48 2335.79 616.254C2232.84 639.581 2128.42 655.915 2023.27 665.146C1947.41 671.185 1871.5 673.939 1796.29 658.101C1657.08 628.755 1561.63 532.296 1535.03 392.188C1513.32 277.931 1534.5 171.565 1598.6 74.364C1613.03 51.6283 1631.85 31.9995 1653.95 16.6262C1667.99 7.03845 1683.35 -1.43701 1700.57 0.205078C1712.4 1.06073 1723.76 5.16705 1733.41 12.0707C1752.65 27.2396 1765.92 48.7153 1770.87 72.7106C1775.82 96.7059 1772.14 121.679 1760.48 143.226C1754.34 154.324 1747.38 164.947 1739.66 175.008C1706.66 220.669 1685.37 270.356 1685.74 327.829C1686.16 392.506 1717.15 441.822 1766.62 480.755C1816.1 519.689 1872.25 541.301 1931.36 558.516C2002.79 578.661 2075.97 591.999 2149.92 598.35C2221.19 604.591 2292.84 605.034 2364.18 599.674C2380.87 598.456 2397.45 596.337 2414.08 594.642L2414.72 597.979Z" fill="black"/>
<path d="M1084.73 2235.67C1084.73 2170.25 1133.25 2120.46 1196.76 2120.51C1225.63 2120.61 1253.28 2132.15 1273.65 2152.61C1294.01 2173.07 1305.43 2200.77 1305.41 2229.63C1305.41 2293.94 1256.09 2345.05 1194.17 2345.05C1179.77 2345.16 1165.5 2342.4 1152.18 2336.94C1138.85 2331.49 1126.75 2323.43 1116.57 2313.26C1106.38 2303.08 1098.33 2290.98 1092.86 2277.66C1087.4 2264.34 1084.63 2250.07 1084.73 2235.67Z" fill="black"/>
<path d="M1908.42 2133.55C1908.35 2119.17 1911.12 2104.92 1916.57 2091.62C1922.03 2078.32 1930.05 2066.22 1940.19 2056.03C1950.33 2045.84 1962.38 2037.75 1975.66 2032.22C1988.93 2026.7 2003.16 2023.85 2017.54 2023.85C2047.61 2023.88 2076.46 2035.71 2097.9 2056.79C2119.35 2077.86 2131.67 2106.51 2132.22 2136.57C2132.31 2150.95 2129.56 2165.21 2124.11 2178.53C2118.66 2191.84 2110.63 2203.94 2100.48 2214.14C2090.33 2224.33 2078.26 2232.41 2064.97 2237.92C2051.68 2243.43 2037.43 2246.25 2023.05 2246.22C1960.17 2246.06 1908.37 2195.15 1908.42 2133.55Z" fill="black"/>
<path d="M2151.29 1473.05C2136.91 1473.24 2122.63 1470.58 2109.28 1465.23C2095.93 1459.87 2083.77 1451.93 2073.51 1441.86C2063.24 1431.78 2055.07 1419.78 2049.47 1406.53C2043.86 1393.28 2040.93 1379.06 2040.85 1364.68C2040.27 1303.86 2093.82 1250.15 2155.42 1250.1C2184.47 1250.42 2212.23 1262.12 2232.74 1282.7C2253.24 1303.27 2264.85 1331.07 2265.07 1360.12C2265.07 1420.35 2212.47 1472.63 2151.29 1473.05Z" fill="black"/>
<path d="M885.294 1416.43C948.382 1417.01 996.903 1465.64 996.162 1527.67C995.42 1589.7 945.521 1636.26 881.851 1635.78C819.61 1635.3 770.242 1586.73 770.983 1526.56C771.725 1462.99 820.828 1415.85 885.294 1416.43Z" fill="black"/>
<path d="M1338.09 972.214C1338.3 943.159 1350 915.369 1370.63 894.913C1391.27 874.457 1419.16 862.999 1448.21 863.042C1510.3 863.571 1560.09 916.277 1559.08 980.425C1558.57 1009.23 1546.79 1036.68 1526.27 1056.9C1505.76 1077.12 1478.13 1088.5 1449.33 1088.59C1387.4 1087.9 1337.77 1035.78 1338.09 972.214Z" fill="black"/>
<path d="M5105.1 1840.32C5116.53 1843.59 5116.53 1853.39 5105.1 1869.72C5093.67 1886.04 5077.34 1904.01 5056.11 1923.6C5036.51 1943.2 5014.47 1961.16 4989.97 1977.49C4967.11 1993.82 4948.33 2003.62 4933.64 2006.88C4920.57 2010.15 4901.79 2013.41 4877.3 2016.68C4852.81 2018.31 4824.23 2020.76 4791.57 2024.03L4833.21 2678.02C4834.84 2704.15 4819.33 2714.77 4786.67 2709.87C4755.65 2704.97 4719.72 2690.27 4678.9 2665.78C4639.71 2642.92 4602.15 2612.71 4566.22 2575.15C4530.3 2537.59 4509.07 2499.22 4502.54 2460.03C4499.27 2446.96 4498.46 2401.24 4500.09 2322.86C4501.72 2246.11 4504.17 2154.66 4507.44 2048.52C4466.61 2051.79 4426.61 2055.05 4387.42 2058.32C4348.23 2059.95 4311.48 2062.4 4277.19 2065.67C4244.53 2067.3 4215.14 2068.94 4189.01 2070.57C4164.52 2072.2 4144.92 2073.02 4130.23 2073.02C4092.67 2149.77 4060.83 2218.35 4034.7 2278.77C4008.57 2339.19 3991.43 2388.18 3983.26 2425.73C3975.1 2471.46 3965.3 2496.77 3953.87 2501.67C3942.44 2508.2 3931.82 2502.48 3922.03 2484.52C3913.86 2466.56 3908.96 2439.61 3907.33 2403.69C3905.7 2369.4 3910.6 2334.29 3922.03 2298.36C3926.92 2278.77 3940.8 2246.93 3963.67 2202.84C3986.53 2158.75 4015.1 2105.68 4049.4 2043.62C4026.53 2027.29 4004.49 2006.88 3983.26 1982.39C3963.67 1957.89 3948.97 1934.22 3939.17 1911.36C3929.37 1888.49 3926.11 1868.9 3929.37 1852.57C3932.64 1834.61 3946.52 1825.63 3971.01 1825.63H4164.52C4195.54 1765.21 4228.2 1701.52 4262.5 1634.57C4296.79 1565.99 4330.26 1496.59 4362.92 1426.37C4397.21 1356.15 4429.06 1285.94 4458.45 1215.72C4487.84 1143.87 4514.79 1073.65 4539.28 1005.07C4540.91 978.943 4540.91 957.714 4539.28 941.385C4539.28 923.423 4539.28 911.175 4539.28 904.644C4532.75 855.655 4536.83 805.85 4551.53 755.229C4566.22 702.975 4583.37 659.702 4602.96 625.41C4624.19 591.118 4644.6 569.073 4664.2 559.275C4685.43 547.845 4697.68 557.642 4700.94 588.668C4702.57 603.365 4705.84 650.72 4710.74 730.735C4717.27 809.116 4723.8 907.093 4730.33 1024.67C4738.5 1140.6 4746.66 1269.61 4754.83 1411.67C4764.63 1552.11 4773.61 1691.72 4781.77 1830.52C4866.69 1832.16 4939.35 1833.79 4999.77 1835.42C5060.19 1835.42 5095.3 1837.06 5105.1 1840.32ZM4534.38 1218.17C4491.92 1324.31 4446.2 1428.82 4397.21 1531.7C4349.86 1634.57 4302.5 1732.55 4255.15 1825.63C4295.97 1825.63 4337.61 1826.44 4380.07 1828.08C4422.52 1828.08 4467.43 1828.08 4514.79 1828.08L4534.38 1218.17ZM5436.65 1629.67C5446.45 1634.57 5460.33 1649.27 5478.29 1673.76C5497.88 1698.26 5518.3 1723.57 5539.52 1749.69C5562.39 1775.82 5585.25 1798.68 5608.11 1818.28C5630.97 1836.24 5652.2 1842.77 5671.79 1837.87C5691.39 1832.97 5710.98 1821.54 5730.58 1803.58C5750.17 1785.62 5768.14 1767.66 5784.47 1749.69C5802.43 1730.1 5818.76 1714.59 5833.45 1703.15C5848.15 1690.09 5859.58 1686.83 5867.75 1693.36C5875.91 1699.89 5870.2 1720.3 5850.6 1754.59C5832.64 1788.88 5806.51 1826.44 5772.22 1867.27C5739.56 1906.46 5702 1944.01 5659.55 1979.94C5618.72 2015.86 5580.35 2038.73 5544.42 2048.52C5513.4 2056.69 5484 2051.79 5456.24 2033.83C5428.48 2014.23 5400.72 1990.55 5372.96 1962.79C5346.84 1933.4 5319.89 1904.01 5292.13 1874.61C5266.01 1845.22 5239.06 1823.18 5211.3 1808.48C5199.87 1865.63 5187.62 1917.07 5174.56 1962.79C5161.5 2008.52 5150.07 2034.64 5140.27 2041.17C5117.41 2054.24 5093.73 2053.42 5069.23 2038.73C5046.37 2024.03 5028.41 2009.33 5015.35 1994.64C5010.45 1986.47 5004.73 1965.24 4998.2 1930.95C4993.3 1896.66 4989.22 1859.1 4985.95 1818.28C4982.69 1777.45 4980.24 1739.9 4978.61 1705.6C4976.97 1669.68 4977.79 1646.82 4981.06 1637.02C4982.69 1627.22 4994.94 1613.34 5017.8 1595.38C5040.66 1577.42 5065.97 1560.27 5093.73 1543.94C5123.12 1527.61 5150.88 1515.37 5177.01 1507.2C5203.14 1499.04 5221.1 1499.04 5230.9 1507.2C5239.06 1513.73 5242.33 1534.14 5240.69 1568.44C5240.69 1601.1 5238.25 1640.29 5233.35 1686.01C5251.31 1674.58 5270.9 1664.78 5292.13 1656.62C5313.36 1648.45 5332.96 1641.92 5350.92 1637.02C5370.51 1632.12 5387.66 1628.86 5402.36 1627.22C5418.69 1625.59 5430.12 1626.41 5436.65 1629.67ZM5861.51 1671.31C5874.57 1664.78 5895.8 1655.8 5925.19 1644.37C5954.59 1631.31 5984.8 1619.87 6015.82 1610.08C6048.48 1600.28 6078.69 1593.75 6106.45 1590.48C6134.21 1587.22 6152.17 1590.48 6160.34 1600.28C6168.5 1610.08 6177.48 1632.94 6187.28 1668.86C6198.71 1704.79 6210.14 1742.35 6221.57 1781.54C6234.64 1820.73 6249.33 1856.65 6265.66 1889.31C6281.99 1920.34 6300.77 1936.67 6322 1938.3C6341.59 1939.93 6360.37 1936.67 6378.34 1928.5C6396.3 1920.34 6412.63 1909.72 6427.32 1896.66C6442.02 1883.6 6454.27 1870.53 6464.07 1857.47C6475.5 1842.77 6483.66 1830.52 6488.56 1820.73C6493.46 1810.93 6499.99 1806.03 6508.15 1806.03C6517.95 1804.4 6522.03 1810.11 6520.4 1823.18C6520.4 1834.61 6513.05 1854.2 6498.36 1881.96C6483.66 1909.72 6455.9 1946.46 6415.08 1992.19C6331.8 2085.26 6259.13 2139.97 6197.08 2156.3C6136.66 2172.63 6091.75 2159.56 6062.36 2117.11C6046.03 2094.25 6034.6 2060.77 6028.07 2016.68C6006.84 2039.54 5981.53 2062.4 5952.14 2085.26C5924.38 2108.13 5896.62 2126.09 5868.86 2139.15C5841.1 2152.22 5814.97 2157.93 5790.47 2156.3C5767.61 2156.3 5749.65 2144.87 5736.59 2122.01C5721.89 2094.25 5720.26 2064.85 5731.69 2033.83C5741.49 2001.17 5759.45 1969.33 5785.58 1938.3C5813.34 1905.64 5845.99 1873.8 5883.55 1842.77C5921.11 1811.75 5958.67 1783.99 5996.23 1759.49C5992.96 1728.47 5988.88 1708.87 5983.98 1700.71C5980.71 1695.81 5970.1 1699.07 5952.14 1710.5C5935.81 1720.3 5917.03 1732.55 5895.8 1747.24C5874.57 1760.31 5853.34 1771.74 5832.11 1781.54C5810.89 1791.33 5794.56 1792.97 5783.13 1786.44C5770.06 1779.9 5764.35 1771.74 5765.98 1761.94C5767.61 1750.51 5772.51 1739.08 5780.68 1727.65C5790.47 1716.22 5802.72 1705.6 5817.42 1695.81C5832.11 1686.01 5846.81 1677.84 5861.51 1671.31ZM6013.37 1918.7C6010.11 1902.37 6007.66 1886.86 6006.02 1872.16C6006.02 1855.84 6005.21 1840.32 6003.57 1825.63C5974.18 1848.49 5953.77 1872.16 5942.34 1896.66C5932.54 1919.52 5929.28 1935.85 5932.54 1945.65C5935.81 1957.08 5943.97 1962.79 5957.04 1962.79C5970.1 1961.16 5988.88 1946.46 6013.37 1918.7ZM6519.31 1671.31C6532.37 1664.78 6553.6 1655.8 6583 1644.37C6612.39 1631.31 6642.6 1619.87 6673.62 1610.08C6706.28 1600.28 6736.49 1593.75 6764.25 1590.48C6792.01 1587.22 6809.98 1590.48 6818.14 1600.28C6826.31 1610.08 6835.29 1632.94 6845.08 1668.86C6856.51 1704.79 6867.95 1742.35 6879.38 1781.54C6892.44 1820.73 6907.14 1856.65 6923.47 1889.31C6939.79 1920.34 6958.57 1936.67 6979.8 1938.3C6999.4 1939.93 7018.18 1936.67 7036.14 1928.5C7054.1 1920.34 7070.43 1909.72 7085.13 1896.66C7099.82 1883.6 7112.07 1870.53 7121.87 1857.47C7133.3 1842.77 7141.46 1830.52 7146.36 1820.73C7151.26 1810.93 7157.79 1806.03 7165.96 1806.03C7175.76 1804.4 7179.84 1810.11 7178.21 1823.18C7178.21 1834.61 7170.86 1854.2 7156.16 1881.96C7141.46 1909.72 7113.7 1946.46 7072.88 1992.19C6989.6 2085.26 6916.93 2139.97 6854.88 2156.3C6794.46 2172.63 6749.56 2159.56 6720.16 2117.11C6703.83 2094.25 6692.4 2060.77 6685.87 2016.68C6664.64 2039.54 6639.33 2062.4 6609.94 2085.26C6582.18 2108.13 6554.42 2126.09 6526.66 2139.15C6498.9 2152.22 6472.77 2157.93 6448.28 2156.3C6425.42 2156.3 6407.45 2144.87 6394.39 2122.01C6379.69 2094.25 6378.06 2064.85 6389.49 2033.83C6399.29 2001.17 6417.25 1969.33 6443.38 1938.3C6471.14 1905.64 6503.8 1873.8 6541.36 1842.77C6578.91 1811.75 6616.47 1783.99 6654.03 1759.49C6650.76 1728.47 6646.68 1708.87 6641.78 1700.71C6638.52 1695.81 6627.9 1699.07 6609.94 1710.5C6593.61 1720.3 6574.83 1732.55 6553.6 1747.24C6532.37 1760.31 6511.15 1771.74 6489.92 1781.54C6468.69 1791.33 6452.36 1792.97 6440.93 1786.44C6427.87 1779.9 6422.15 1771.74 6423.78 1761.94C6425.42 1750.51 6430.32 1739.08 6438.48 1727.65C6448.28 1716.22 6460.52 1705.6 6475.22 1695.81C6489.92 1686.01 6504.61 1677.84 6519.31 1671.31ZM6671.18 1918.7C6667.91 1902.37 6665.46 1886.86 6663.83 1872.16C6663.83 1855.84 6663.01 1840.32 6661.38 1825.63C6631.98 1848.49 6611.57 1872.16 6600.14 1896.66C6590.34 1919.52 6587.08 1935.85 6590.34 1945.65C6593.61 1957.08 6601.77 1962.79 6614.84 1962.79C6627.9 1961.16 6646.68 1946.46 6671.18 1918.7ZM7561.67 495.59C7566.57 466.197 7573.92 449.051 7583.72 444.153C7595.15 439.254 7605.76 441.703 7615.56 451.501C7625.36 461.298 7634.34 477.628 7642.5 500.489C7650.67 521.718 7654.75 544.579 7654.75 569.073C7654.75 614.795 7651.49 680.113 7644.95 765.027C7640.06 849.94 7635.16 943.018 7630.26 1044.26C7625.36 1145.5 7621.28 1250.01 7618.01 1357.79C7616.38 1463.93 7618.83 1561.9 7625.36 1651.72C7631.89 1741.53 7643.32 1817.46 7659.65 1879.51C7677.61 1939.93 7703.74 1975.04 7738.03 1984.84C7765.79 1993 7792.74 1987.29 7818.86 1967.69C7844.99 1948.1 7872.75 1911.36 7902.14 1857.47C7931.54 1803.58 7951.95 1781.54 7963.38 1791.33C7974.81 1801.13 7969.09 1829.71 7946.23 1877.06C7892.35 1991.37 7842.54 2077.1 7796.82 2134.25C7752.73 2191.41 7713.54 2225.7 7679.25 2237.13C7644.95 2250.19 7616.38 2242.84 7593.52 2215.08C7570.65 2188.96 7555.14 2149.77 7546.98 2097.51C7543.71 2074.65 7540.45 2039.54 7537.18 1992.19C7535.55 1944.83 7533.91 1890.13 7532.28 1828.08C7519.22 1896.66 7500.44 1961.98 7475.94 2024.03C7451.45 2086.08 7425.32 2126.9 7397.56 2146.5C7364.9 2170.99 7326.53 2178.34 7282.44 2168.54C7239.98 2160.38 7200.79 2142.42 7164.87 2114.66C7130.58 2085.26 7104.45 2049.34 7086.49 2006.88C7068.52 1964.43 7068.52 1921.97 7086.49 1879.51C7097.92 1851.75 7121.59 1823.18 7157.52 1793.78C7195.08 1762.76 7235.9 1732.55 7279.99 1703.15C7325.71 1672.13 7371.44 1642.74 7417.16 1614.98C7462.88 1585.58 7501.25 1557.82 7532.28 1531.7C7532.28 1422.29 7533.1 1309.61 7534.73 1193.68C7538 1077.74 7540.45 970.778 7542.08 872.801C7545.34 774.824 7548.61 691.544 7551.88 622.96C7555.14 554.376 7558.41 511.92 7561.67 495.59ZM7284.89 1855.02C7281.62 1866.45 7287.34 1880.33 7302.03 1896.66C7316.73 1911.36 7336.33 1916.25 7360.82 1911.36C7385.32 1906.46 7412.26 1884.41 7441.65 1845.22C7472.68 1806.03 7502.89 1738.26 7532.28 1641.92V1622.32C7512.69 1638.65 7489.82 1656.62 7463.7 1676.21C7437.57 1695.81 7411.44 1716.22 7385.32 1737.45C7360.82 1757.04 7338.78 1777.45 7319.18 1798.68C7299.59 1818.28 7288.15 1837.06 7284.89 1855.02ZM8292.42 1477.81C8295.69 1432.09 8303.04 1407.59 8314.47 1404.33C8325.9 1399.43 8337.33 1405.96 8348.76 1423.92C8360.19 1440.25 8369.99 1463.11 8378.15 1492.5C8387.95 1520.26 8392.03 1543.94 8390.4 1563.54C8383.87 1645.19 8381.42 1732.55 8383.05 1825.63C8386.32 1917.07 8390.4 2005.25 8395.3 2090.16C8400.2 2175.08 8405.1 2251.01 8410 2317.96C8416.53 2384.91 8419.79 2433.9 8419.79 2464.92C8419.79 2495.95 8410.81 2526.16 8392.85 2555.55C8376.52 2586.58 8358.56 2611.07 8338.96 2629.04C8319.37 2647 8302.22 2655.98 8287.53 2655.98C8272.83 2655.98 8267.93 2641.28 8272.83 2611.89C8274.46 2597.19 8276.09 2571.07 8277.73 2533.51C8279.36 2495.95 8280.99 2451.04 8282.63 2398.79C8284.26 2346.54 8285.08 2288.57 8285.08 2224.88C8286.71 2162.83 8287.53 2099.96 8287.53 2036.28C8263.03 2054.24 8235.27 2068.94 8204.24 2080.37C8174.85 2091.8 8150.36 2094.25 8130.76 2087.71C8116.07 2082.82 8097.29 2066.49 8074.43 2038.73C8053.2 2009.33 8029.52 1977.49 8003.39 1943.2C7977.27 1908.91 7949.51 1877.06 7920.11 1847.67C7892.35 1818.28 7864.59 1800.32 7836.83 1793.78C7807.44 1787.25 7798.46 1774.19 7809.89 1754.59C7821.32 1733.36 7844.18 1713.77 7878.47 1695.81C7912.76 1676.21 7951.95 1662.33 7996.04 1654.17C8041.77 1644.37 8082.59 1647.63 8118.52 1663.96C8134.84 1672.13 8150.36 1685.19 8165.05 1703.15C8179.75 1719.48 8193.63 1739.08 8206.69 1761.94C8219.76 1784.8 8232.82 1809.3 8245.88 1835.42C8260.58 1859.92 8274.46 1883.6 8287.53 1906.46C8287.53 1855.84 8287.53 1807.66 8287.53 1761.94C8287.53 1714.59 8287.53 1672.13 8287.53 1634.57C8289.16 1595.38 8289.97 1562.72 8289.97 1536.59C8291.61 1508.83 8292.42 1489.24 8292.42 1477.81ZM8607.54 1671.31C8620.6 1664.78 8641.83 1655.8 8671.22 1644.37C8700.62 1631.31 8730.83 1619.87 8761.85 1610.08C8794.51 1600.28 8824.72 1593.75 8852.48 1590.48C8880.24 1587.22 8898.2 1590.48 8906.37 1600.28C8914.53 1610.08 8923.51 1632.94 8933.31 1668.86C8944.74 1704.79 8956.17 1742.35 8967.6 1781.54C8980.67 1820.73 8995.36 1856.65 9011.69 1889.31C9028.02 1920.34 9046.8 1936.67 9068.03 1938.3C9087.62 1939.93 9106.4 1936.67 9124.37 1928.5C9142.33 1920.34 9158.66 1909.72 9173.35 1896.66C9188.05 1883.6 9200.3 1870.53 9210.1 1857.47C9221.53 1842.77 9229.69 1830.52 9234.59 1820.73C9239.49 1810.93 9246.02 1806.03 9254.19 1806.03C9263.98 1804.4 9268.07 1810.11 9266.43 1823.18C9266.43 1834.61 9259.08 1854.2 9244.39 1881.96C9229.69 1909.72 9201.93 1946.46 9161.11 1992.19C9077.83 2085.26 9005.16 2139.97 8943.11 2156.3C8882.69 2172.63 8837.78 2159.56 8808.39 2117.11C8792.06 2094.25 8780.63 2060.77 8774.1 2016.68C8752.87 2039.54 8727.56 2062.4 8698.17 2085.26C8670.41 2108.13 8642.65 2126.09 8614.89 2139.15C8587.13 2152.22 8561 2157.93 8536.5 2156.3C8513.64 2156.3 8495.68 2144.87 8482.62 2122.01C8467.92 2094.25 8466.29 2064.85 8477.72 2033.83C8487.52 2001.17 8505.48 1969.33 8531.61 1938.3C8559.37 1905.64 8592.03 1873.8 8629.58 1842.77C8667.14 1811.75 8704.7 1783.99 8742.26 1759.49C8738.99 1728.47 8734.91 1708.87 8730.01 1700.71C8726.74 1695.81 8716.13 1699.07 8698.17 1710.5C8681.84 1720.3 8663.06 1732.55 8641.83 1747.24C8620.6 1760.31 8599.37 1771.74 8578.15 1781.54C8556.92 1791.33 8540.59 1792.97 8529.16 1786.44C8516.09 1779.9 8510.38 1771.74 8512.01 1761.94C8513.64 1750.51 8518.54 1739.08 8526.71 1727.65C8536.5 1716.22 8548.75 1705.6 8563.45 1695.81C8578.15 1686.01 8592.84 1677.84 8607.54 1671.31ZM8759.4 1918.7C8756.14 1902.37 8753.69 1886.86 8752.05 1872.16C8752.05 1855.84 8751.24 1840.32 8749.6 1825.63C8720.21 1848.49 8699.8 1872.16 8688.37 1896.66C8678.57 1919.52 8675.31 1935.85 8678.57 1945.65C8681.84 1957.08 8690 1962.79 8703.07 1962.79C8716.13 1961.16 8734.91 1946.46 8759.4 1918.7ZM9610.71 1629.67C9620.51 1634.57 9634.39 1649.27 9652.35 1673.76C9671.95 1698.26 9692.36 1723.57 9713.59 1749.69C9736.45 1775.82 9759.31 1798.68 9782.17 1818.28C9805.03 1836.24 9826.26 1842.77 9845.85 1837.87C9865.45 1832.97 9885.04 1821.54 9904.64 1803.58C9924.24 1785.62 9942.2 1767.66 9958.53 1749.69C9976.49 1730.1 9992.82 1714.59 10007.5 1703.15C10022.2 1690.09 10033.6 1686.83 10041.8 1693.36C10050 1699.89 10044.3 1720.3 10024.7 1754.59C10006.7 1788.88 9980.57 1826.44 9946.28 1867.27C9913.62 1906.46 9876.06 1944.01 9833.61 1979.94C9792.78 2015.86 9754.41 2038.73 9718.48 2048.52C9687.46 2056.69 9658.07 2051.79 9630.3 2033.83C9602.54 2014.23 9574.78 1990.55 9547.02 1962.79C9520.9 1933.4 9493.95 1904.01 9466.19 1874.61C9440.07 1845.22 9413.12 1823.18 9385.36 1808.48C9373.93 1865.63 9361.69 1917.07 9348.62 1962.79C9335.56 2008.52 9324.13 2034.64 9314.33 2041.17C9291.47 2054.24 9267.79 2053.42 9243.3 2038.73C9220.44 2024.03 9202.47 2009.33 9189.41 1994.64C9184.51 1986.47 9178.8 1965.24 9172.26 1930.95C9167.36 1896.66 9163.28 1859.1 9160.02 1818.28C9156.75 1777.45 9154.3 1739.9 9152.67 1705.6C9151.03 1669.68 9151.85 1646.82 9155.12 1637.02C9156.75 1627.22 9169 1613.34 9191.86 1595.38C9214.72 1577.42 9240.03 1560.27 9267.79 1543.94C9297.18 1527.61 9324.94 1515.37 9351.07 1507.2C9377.2 1499.04 9395.16 1499.04 9404.96 1507.2C9413.12 1513.73 9416.39 1534.14 9414.76 1568.44C9414.76 1601.1 9412.31 1640.29 9407.41 1686.01C9425.37 1674.58 9444.97 1664.78 9466.19 1656.62C9487.42 1648.45 9507.02 1641.92 9524.98 1637.02C9544.58 1632.12 9561.72 1628.86 9576.42 1627.22C9592.75 1625.59 9604.18 1626.41 9610.71 1629.67ZM9117.04 1389.63C9182.35 1322.68 9247.67 1272.06 9312.99 1237.76C9376.68 1203.47 9442.81 1180.61 9511.39 1169.18C9578.34 1156.12 9648.56 1151.22 9722.04 1154.48C9793.89 1157.75 9869.01 1164.28 9947.39 1174.08C9950.66 963.43 9948.21 729.102 9940.04 471.096C9940.04 454.767 9944.94 436.804 9954.74 417.209C9966.17 395.981 9978.42 378.018 9991.48 363.322C10004.5 348.625 10016.8 338.011 10028.2 331.479C10039.7 323.314 10046.2 323.314 10047.8 331.479C10052.7 360.872 10056 404.145 10057.6 461.299C10059.2 516.819 10059.2 582.953 10057.6 659.702C10057.6 734.817 10056 817.281 10052.7 907.093C10051.1 996.905 10048.6 1089.98 10045.4 1186.33C10048.6 1187.96 10055.2 1188.78 10065 1188.78C10189.1 1203.47 10305.8 1214.9 10415.2 1223.07C10524.6 1229.6 10625.1 1231.23 10716.5 1227.97C10809.6 1223.07 10893.7 1211.64 10968.8 1193.68C11043.9 1175.71 11109.2 1147.95 11164.8 1110.4C11195.8 1089.17 11219.5 1076.92 11235.8 1073.65C11253.7 1068.75 11255.4 1080.19 11240.7 1107.95C11224.4 1138.97 11197.4 1174.08 11159.9 1213.27C11123.9 1250.83 11075.8 1287.57 11015.3 1323.49C10954.9 1359.42 10883.1 1391.26 10799.8 1419.02C10718.1 1445.15 10624.2 1462.3 10518.1 1470.46C10447.9 1476.99 10371.1 1480.26 10287.9 1480.26C10206.2 1480.26 10122.1 1478.62 10035.6 1475.36C10030.7 1596.2 10026.6 1712.95 10023.3 1825.63C10021.7 1938.3 10020.9 2038.73 10020.9 2126.9C10020.9 2213.45 10023.3 2283.67 10028.2 2337.55C10033.1 2391.44 10041.3 2420.02 10052.7 2423.28C10069 2428.18 10082.9 2424.92 10094.4 2413.49C10107.4 2403.69 10118 2388.99 10126.2 2369.4C10134.4 2349.8 10140.9 2327.76 10145.8 2303.26C10150.7 2280.4 10154 2258.36 10155.6 2237.13C10158.9 2201.2 10168.7 2187.32 10185 2195.49C10201.3 2205.29 10217.6 2225.7 10234 2256.72C10251.9 2289.38 10265.8 2327.76 10275.6 2371.85C10287 2417.57 10288.7 2457.58 10280.5 2491.87C10275.6 2513.1 10265.8 2535.96 10251.1 2560.45C10238.1 2586.58 10220.9 2609.44 10199.7 2629.04C10180.1 2650.26 10156.4 2665.78 10128.6 2675.57C10100.9 2687.01 10070.7 2688.64 10038 2680.47C10003.7 2670.68 9979.23 2638.02 9964.54 2582.5C9949.84 2528.61 9940.86 2451.04 9937.59 2349.8C9934.33 2250.19 9933.51 2127.72 9935.14 1982.39C9938.41 1835.42 9941.67 1665.6 9944.94 1472.91C9866.56 1469.64 9789.81 1466.38 9714.7 1463.11C9639.58 1459.85 9570.18 1457.4 9506.49 1455.76C9442.81 1452.5 9387.29 1451.68 9339.93 1453.31C9292.58 1453.31 9257.47 1455.76 9234.61 1460.66C9157.86 1478.62 9108.06 1483.52 9085.19 1475.36C9060.7 1465.56 9071.31 1436.98 9117.04 1389.63ZM10236.5 1671.31C10249.6 1664.78 10270.8 1655.8 10300.2 1644.37C10329.6 1631.31 10359.8 1619.87 10390.8 1610.08C10423.5 1600.28 10453.7 1593.75 10481.4 1590.48C10509.2 1587.22 10527.2 1590.48 10535.3 1600.28C10543.5 1610.08 10552.5 1632.94 10562.3 1668.86C10573.7 1704.79 10585.1 1742.35 10596.6 1781.54C10609.6 1820.73 10624.3 1856.65 10640.7 1889.31C10657 1920.34 10675.8 1936.67 10697 1938.3C10716.6 1939.93 10735.4 1936.67 10753.3 1928.5C10771.3 1920.34 10787.6 1909.72 10802.3 1896.66C10817 1883.6 10829.3 1870.53 10839.1 1857.47C10850.5 1842.77 10858.7 1830.52 10863.6 1820.73C10868.4 1810.93 10875 1806.03 10883.1 1806.03C10892.9 1804.4 10897 1810.11 10895.4 1823.18C10895.4 1834.61 10888 1854.2 10873.3 1881.96C10858.7 1909.72 10830.9 1946.46 10790.1 1992.19C10706.8 2085.26 10634.1 2139.97 10572.1 2156.3C10511.7 2172.63 10466.7 2159.56 10437.4 2117.11C10421 2094.25 10409.6 2060.77 10403.1 2016.68C10381.8 2039.54 10356.5 2062.4 10327.1 2085.26C10299.4 2108.13 10271.6 2126.09 10243.8 2139.15C10216.1 2152.22 10190 2157.93 10165.5 2156.3C10142.6 2156.3 10124.6 2144.87 10111.6 2122.01C10096.9 2094.25 10095.2 2064.85 10106.7 2033.83C10116.5 2001.17 10134.4 1969.33 10160.6 1938.3C10188.3 1905.64 10221 1873.8 10258.5 1842.77C10296.1 1811.75 10333.7 1783.99 10371.2 1759.49C10368 1728.47 10363.9 1708.87 10359 1700.71C10355.7 1695.81 10345.1 1699.07 10327.1 1710.5C10310.8 1720.3 10292 1732.55 10270.8 1747.24C10249.6 1760.31 10228.3 1771.74 10207.1 1781.54C10185.9 1791.33 10169.5 1792.97 10158.1 1786.44C10145.1 1779.9 10139.3 1771.74 10141 1761.94C10142.6 1750.51 10147.5 1739.08 10155.7 1727.65C10165.5 1716.22 10177.7 1705.6 10192.4 1695.81C10207.1 1686.01 10221.8 1677.84 10236.5 1671.31ZM10388.4 1918.7C10385.1 1902.37 10382.6 1886.86 10381 1872.16C10381 1855.84 10380.2 1840.32 10378.6 1825.63C10349.2 1848.49 10328.8 1872.16 10317.3 1896.66C10307.5 1919.52 10304.3 1935.85 10307.5 1945.65C10310.8 1957.08 10319 1962.79 10332 1962.79C10345.1 1961.16 10363.9 1946.46 10388.4 1918.7Z" fill="black"/>
</svg>
